SplineFontDB: 1.0
FontName: UbuntuTitleUltralight
FullName: UbuntuTitleUltralight
FamilyName: UbuntuTitleUltralight
Weight: Ultralight
Copyright: Copyright (c) 2005 Canonical Ltd.\nmade by Andrew Fitzsimon ( andrew@fitzsimon.com.au ) \nreleased under the LGPL ( http://www.gnu.org/copyleft/lesser.html )\nskinny version from Paulo Silva - may'07
Version: 002.000
ItalicAngle: 0
UnderlinePosition: -100
UnderlineWidth: 50
Ascent: 800
Descent: 200
Order2: 1
XUID: [1021 682 1097764676 3026829]
FSType: 0
OS2Version: 1
OS2_WeightWidthSlopeOnly: 0
OS2_UseTypoMetrics: 1
CreationTime: 1124425253
ModificationTime: 1182794832
PfmFamily: 17
TTFWeight: 400
TTFWidth: 5
LineGap: 88
VLineGap: 0
Panose: 2 0 5 3 0 0 0 0 0 0
OS2TypoAscent: 0
OS2TypoAOffset: 1
OS2TypoDescent: 0
OS2TypoDOffset: 1
OS2TypoLinegap: 0
OS2WinAscent: 0
OS2WinAOffset: 1
OS2WinDescent: 0
OS2WinDOffset: 1
HheadAscent: 0
HheadAOffset: 1
HheadDescent: 0
HheadDOffset: 1
OS2SubXSize: 648
OS2SubYSize: 696
OS2SubXOff: 0
OS2SubYOff: 138
OS2SupXSize: 648
OS2SupYSize: 696
OS2SupXOff: 0
OS2SupYOff: 476
OS2StrikeYSize: 48
OS2StrikeYPos: 256
OS2Vendor: 'PfEd'
ScriptLang: 1
 1 latn 1 dflt 
TableOrder: GPOS 1
	'kern'
TtfTable: cvt  4
!$MDh
EndTtf
TtfTable: maxp 32
!!*'"!+>k6!!<3$!!!!#!!!!"!!*'"!'gMaz
EndTtf
LangName: 1033 
LangName: 2057 "" "" "Ubuntu-Title" 
LangName: 3081 "" "" "Ubuntu-Title" 
Encoding: UnicodeFull
Compacted: 1
UnicodeInterp: none
NameList: Adobe Glyph List
DisplaySize: -48
AntiAlias: 1
FitToEm: 1
WinInfo: 16 16 10
BeginChars: 1114114 164
StartChar: exclam
Encoding: 33 33 4
Width: 254
GlyphClass: 2
Flags: W
Fore
152.594 666.979 m 0,0,1
 156.282 662.489 156.282 662.489 162.631 662.489 c 0,2,3
 166 662.489 166 662.489 166 653.572 c 2,4,-1
 166 206.362 l 2,5,6
 166 200.818 166 200.818 162.072 196.903 c 128,-1,7
 158.145 192.987 158.145 192.987 152.594 192.987 c 128,-1,8
 147.047 192.987 147.047 192.987 143.133 196.901 c 128,-1,9
 139.219 200.815 139.219 200.815 139.219 206.362 c 2,10,-1
 139.219 653.572 l 2,11,12
 139.219 659.123 139.219 659.123 143.134 663.051 c 128,-1,13
 147.049 666.979 147.049 666.979 152.594 666.979 c 0,0,1
166.011 12.9629 m 128,-1,15
 166.011 7.38574 166.011 7.38574 162.085 3.45898 c 128,-1,16
 158.159 -0.466797 158.159 -0.466797 152.611 -0.466797 c 128,-1,17
 147.063 -0.466797 147.063 -0.466797 143.137 3.45898 c 128,-1,18
 139.211 7.38574 139.211 7.38574 139.211 12.9336 c 2,19,-1
 139.211 13.0049 l 2,20,21
 139.211 18.5527 139.211 18.5527 143.137 22.4785 c 128,-1,22
 147.063 26.4043 147.063 26.4043 152.611 26.4043 c 128,-1,23
 158.159 26.4043 158.159 26.4043 162.085 22.4785 c 128,-1,14
 166.011 18.5518 166.011 18.5518 166.011 12.9629 c 128,-1,15
EndSplineSet
EndChar
StartChar: quotedbl
Encoding: 34 34 5
Width: 382
GlyphClass: 2
Flags: W
Fore
266.594 627.469 m 128,-1,1
 272.141 627.469 272.141 627.469 276.071 623.539 c 128,-1,2
 280 619.61 280 619.61 280 614.062 c 2,3,-1
 280 430.75 l 2,4,5
 280 425.206 280 425.206 276.072 421.29 c 128,-1,6
 272.144 417.375 272.144 417.375 266.594 417.375 c 128,-1,7
 261.046 417.375 261.046 417.375 257.132 421.289 c 128,-1,8
 253.219 425.202 253.219 425.202 253.219 430.75 c 2,9,-1
 253.219 614.062 l 2,10,11
 253.219 619.613 253.219 619.613 257.134 623.541 c 128,-1,0
 261.049 627.469 261.049 627.469 266.594 627.469 c 128,-1,1
61.958 627.469 m 128,-1,13
 67.5049 627.469 67.5049 627.469 74.1279 625.504 c 0,14,15
 75.3643 623.539 75.3643 623.539 75.3643 614.062 c 2,16,-1
 75.3643 430.75 l 2,17,18
 75.3643 425.206 75.3643 425.206 71.4355 421.29 c 128,-1,19
 67.5078 417.375 67.5078 417.375 61.958 417.375 c 128,-1,20
 56.4111 417.375 56.4111 417.375 52.4971 421.289 c 128,-1,21
 48.583 425.203 48.583 425.203 48.583 430.75 c 2,22,-1
 48.583 614.062 l 2,23,24
 48.583 619.613 48.583 619.613 52.498 623.541 c 128,-1,12
 56.4141 627.469 56.4141 627.469 61.958 627.469 c 128,-1,13
EndSplineSet
EndChar
StartChar: numbersign
Encoding: 35 35 6
Width: 712
GlyphClass: 2
Flags: W
Fore
196.924 712.844 m 128,-1,1
 202.362 712.844 202.362 712.844 206.215 708.914 c 128,-1,2
 210.067 704.985 210.067 704.985 210.067 699.438 c 2,3,-1
 210.067 506.5 l 1,4,-1
 415.743 506.5 l 1,5,-1
 415.743 699.438 l 2,6,7
 415.743 704.988 415.743 704.988 419.582 708.916 c 128,-1,8
 423.421 712.844 423.421 712.844 428.856 712.844 c 128,-1,9
 434.295 712.844 434.295 712.844 438.147 708.914 c 128,-1,10
 442 704.985 442 704.985 442 699.438 c 2,11,-1
 442 506.5 l 1,12,-1
 603.271 506.5 l 2,13,14
 608.712 506.5 608.712 506.5 612.546 502.572 c 128,-1,15
 616.389 498.644 616.389 498.644 616.389 493.094 c 128,-1,16
 616.389 487.546 616.389 487.546 612.546 483.633 c 128,-1,17
 608.712 479.719 608.712 479.719 603.271 479.719 c 2,18,-1
 442 479.719 l 1,19,-1
 442 214.906 l 1,20,-1
 603.271 214.906 l 2,21,22
 608.712 214.906 608.712 214.906 612.546 210.978 c 128,-1,23
 616.389 207.05 616.389 207.05 616.389 201.5 c 128,-1,24
 616.389 195.953 616.389 195.953 612.546 192.039 c 128,-1,25
 608.712 188.125 608.712 188.125 603.271 188.125 c 2,26,-1
 442 188.125 l 1,27,-1
 442 13.5938 l 2,28,29
 442 8.0498 442 8.0498 438.148 4.13379 c 128,-1,30
 434.298 0.21875 434.298 0.21875 428.856 0.21875 c 128,-1,31
 423.418 0.21875 423.418 0.21875 419.581 4.13281 c 128,-1,32
 415.743 8.04688 415.743 8.04688 415.743 13.5938 c 2,33,-1
 415.743 188.125 l 1,34,-1
 210.067 188.125 l 1,35,-1
 210.067 13.5938 l 2,36,37
 210.067 8.0498 210.067 8.0498 206.216 4.13379 c 128,-1,38
 202.365 0.21875 202.365 0.21875 196.924 0.21875 c 128,-1,39
 191.485 0.21875 191.485 0.21875 187.647 4.13281 c 128,-1,40
 183.812 8.04688 183.812 8.04688 183.812 13.5938 c 2,41,-1
 183.812 188.125 l 1,42,-1
 29.7119 188.125 l 2,43,44
 24.2715 188.125 24.2715 188.125 20.4199 192.04 c 128,-1,45
 16.5693 195.956 16.5693 195.956 16.5693 201.5 c 128,-1,46
 16.5693 207.047 16.5693 207.047 20.4209 210.977 c 128,-1,47
 24.2744 214.906 24.2744 214.906 29.7119 214.906 c 2,48,-1
 183.812 214.906 l 1,49,-1
 183.812 479.719 l 1,50,-1
 29.7119 479.719 l 2,51,52
 24.2715 479.719 24.2715 479.719 20.4199 483.634 c 128,-1,53
 16.5693 487.549 16.5693 487.549 16.5693 493.094 c 128,-1,54
 16.5693 498.641 16.5693 498.641 20.4209 502.571 c 128,-1,55
 24.2744 506.5 24.2744 506.5 29.7119 506.5 c 2,56,-1
 183.812 506.5 l 1,57,-1
 183.812 699.438 l 2,58,59
 183.812 704.988 183.812 704.988 187.649 708.916 c 128,-1,0
 191.487 712.844 191.487 712.844 196.924 712.844 c 128,-1,1
210.067 479.719 m 1,60,-1
 210.067 214.906 l 1,61,-1
 415.743 214.906 l 1,62,-1
 415.743 479.719 l 1,63,-1
 210.067 479.719 l 1,60,-1
EndSplineSet
EndChar
StartChar: dollar
Encoding: 36 36 7
Width: 513
GlyphClass: 2
Flags: W
Fore
241.594 696.531 m 128,-1,1
 247.142 696.531 247.142 696.531 251.07 692.602 c 128,-1,2
 255 688.672 255 688.672 255 683.125 c 2,3,-1
 255 595.75 l 1,4,-1
 414.375 595.875 l 2,5,6
 419.845 595.875 419.845 595.875 423.767 592.114 c 128,-1,7
 427.688 588.353 427.688 588.353 427.688 583.411 c 0,8,9
 427.688 569.094 427.688 569.094 414.375 569.094 c 2,10,-1
 255 569.094 l 1,11,-1
 255 360.312 l 1,12,-1
 294.594 360.312 l 2,13,14
 368.163 360.312 368.163 360.312 410.121 326.147 c 128,-1,15
 452.079 291.982 452.079 291.982 450.594 233.75 c 0,16,17
 450.594 164.613 450.594 164.613 409.149 130.182 c 128,-1,18
 367.704 95.75 367.704 95.75 294.594 95.75 c 2,19,-1
 255 95.75 l 1,20,-1
 255 8.8125 l 2,21,22
 255 3.26855 255 3.26855 251.072 -0.647461 c 128,-1,23
 247.144 -4.5625 247.144 -4.5625 241.594 -4.5625 c 128,-1,24
 236.046 -4.5625 236.046 -4.5625 232.133 -0.648438 c 128,-1,25
 228.219 3.26562 228.219 3.26562 228.219 8.8125 c 2,26,-1
 228.219 95.75 l 1,27,-1
 58.8281 95.75 l 2,28,29
 45.2383 95.75 45.2383 95.75 45.2383 109.125 c 0,30,31
 45.2383 114.813 45.2383 114.813 49.0684 118.626 c 128,-1,32
 52.8975 122.438 52.8975 122.438 58.8281 122.438 c 2,33,-1
 228.219 122.438 l 1,34,-1
 228.219 331.969 l 1,35,-1
 187.25 331.969 l 2,36,37
 115.698 331.969 115.698 331.969 74.4736 366.192 c 128,-1,38
 33.25 400.416 33.25 400.416 33.25 457.75 c 0,39,40
 33.25 519.322 33.25 519.322 78.3105 557.536 c 128,-1,41
 123.372 595.75 123.372 595.75 187.25 595.75 c 2,42,-1
 228.219 595.75 l 1,43,-1
 228.219 683.125 l 2,44,45
 228.219 688.676 228.219 688.676 232.134 692.604 c 128,-1,0
 236.05 696.531 236.05 696.531 241.594 696.531 c 128,-1,1
187.25 569.094 m 2,46,47
 136.378 569.094 136.378 569.094 97.5332 538.484 c 128,-1,48
 58.6875 507.875 58.6875 507.875 58.6875 457.75 c 0,49,50
 58.6875 416.563 58.6875 416.563 95.5713 388.438 c 128,-1,51
 132.454 360.312 132.454 360.312 187.25 360.312 c 2,52,-1
 228.219 360.312 l 1,53,-1
 228.219 569.094 l 1,54,-1
 187.25 569.094 l 2,46,47
255 331.969 m 1,55,-1
 255 122.438 l 1,56,-1
 294.594 122.438 l 2,57,58
 349.253 122.438 349.253 122.438 384.158 153.357 c 128,-1,59
 419.062 184.277 419.062 184.277 419.062 231.906 c 0,60,61
 419.062 278.409 419.062 278.409 384.642 305.189 c 128,-1,62
 350.22 331.969 350.22 331.969 294.594 331.969 c 2,63,-1
 255 331.969 l 1,55,-1
EndSplineSet
EndChar
StartChar: quotesingle
Encoding: 39 39 8
Width: 304
GlyphClass: 2
Flags: W
Fore
142.5 627.469 m 128,-1,1
 146.099 627.469 146.099 627.469 152.469 625.504 c 0,2,3
 151.196 623.539 151.196 623.539 151.196 614.062 c 2,4,-1
 151.196 430.75 l 2,5,6
 151.196 425.206 151.196 425.206 148.647 421.29 c 128,-1,7
 146.099 417.375 146.099 417.375 142.5 417.375 c 128,-1,8
 138.9 417.375 138.9 417.375 136.365 421.289 c 128,-1,9
 133.822 425.203 133.822 425.203 133.822 430.75 c 2,10,-1
 133.822 614.062 l 2,11,12
 133.822 619.613 133.822 619.613 136.365 623.541 c 128,-1,0
 138.9 627.469 138.9 627.469 142.5 627.469 c 128,-1,1
EndSplineSet
EndChar
StartChar: parenleft
Encoding: 40 40 9
Width: 300
GlyphClass: 2
Flags: W
Fore
182.438 700.531 m 128,-1,1
 187.984 700.531 187.984 700.531 191.914 696.602 c 128,-1,2
 195.844 692.672 195.844 692.672 195.844 687.125 c 0,3,4
 195.844 679.39 195.844 679.39 190.8 677.552 c 1,5,6
 74.2471 553.885 74.2471 553.885 72 350.625 c 0,7,8
 72 130.045 72 130.045 191 25.1865 c 2,9,-1
 192.094 24.374 l 1,10,11
 192.044 24.2686 192.044 24.2686 192.031 24.249 c 1,12,13
 195.844 20.3369 195.844 20.3369 195.844 14.874 c 128,-1,14
 195.844 9.33008 195.844 9.33008 191.916 5.41406 c 128,-1,15
 187.988 1.49902 187.988 1.49902 182.438 1.49902 c 0,16,17
 176.683 1.49902 176.683 1.49902 172.719 5.68652 c 0,18,19
 108.513 68.4883 108.513 68.4883 77.9014 158.934 c 128,-1,20
 47.29 249.381 47.29 249.381 45.1875 350.624 c 0,21,22
 45.1875 459.836 45.1875 459.836 72.9492 539.43 c 128,-1,23
 100.711 619.023 100.711 619.023 171.122 696.184 c 1,24,0
 176.941 700.53 176.941 700.53 182.438 700.531 c 128,-1,1
EndSplineSet
EndChar
StartChar: parenright
Encoding: 41 41 10
Width: 252
GlyphClass: 2
Flags: W
Fore
63.5117 700.531 m 128,-1,1
 69.0078 700.53 69.0078 700.53 74.8271 696.184 c 1,2,3
 145.238 619.023 145.238 619.023 173 539.43 c 128,-1,4
 200.762 459.836 200.762 459.836 200.762 350.624 c 0,5,6
 198.659 249.381 198.659 249.381 168.048 158.934 c 128,-1,7
 137.438 68.4883 137.438 68.4883 73.2305 5.68652 c 0,8,9
 69.2666 1.49902 69.2666 1.49902 63.5117 1.49902 c 0,10,11
 57.9609 1.49902 57.9609 1.49902 54.0332 5.41406 c 128,-1,12
 50.1055 9.33008 50.1055 9.33008 50.1055 14.874 c 128,-1,13
 50.1055 20.3369 50.1055 20.3369 53.918 24.249 c 1,14,15
 53.9053 24.2686 53.9053 24.2686 53.8555 24.374 c 1,16,-1
 54.9492 25.1865 l 2,17,18
 173.949 130.045 173.949 130.045 173.949 350.625 c 0,19,20
 171.702 553.885 171.702 553.885 55.1494 677.552 c 1,21,22
 50.1055 679.39 50.1055 679.39 50.1055 687.125 c 0,23,24
 50.1055 692.672 50.1055 692.672 54.0352 696.602 c 128,-1,0
 57.9648 700.531 57.9648 700.531 63.5117 700.531 c 128,-1,1
EndSplineSet
EndChar
StartChar: asterisk
Encoding: 42 42 11
Width: 450
GlyphClass: 2
Flags: W
Fore
160.438 793.281 m 0,0,1
 168.393 793.491 168.393 793.491 172.375 786.594 c 2,2,-1
 267.531 621.812 l 1,3,-1
 362.656 786.625 l 2,4,5
 369.345 798.211 369.345 798.211 380.97 791.5 c 128,-1,6
 392.54 784.818 392.54 784.818 385.845 773.219 c 2,7,-1
 290.72 608.438 l 1,8,-1
 481 608.438 l 2,9,10
 486.544 608.438 486.544 608.438 490.46 604.51 c 128,-1,11
 494.375 600.582 494.375 600.582 494.375 595.031 c 128,-1,12
 494.375 589.484 494.375 589.484 490.461 585.57 c 128,-1,13
 486.548 581.656 486.548 581.656 481 581.656 c 2,14,-1
 290.688 581.656 l 1,15,-1
 385.845 416.906 l 2,16,17
 392.554 405.283 392.554 405.283 380.97 398.594 c 128,-1,18
 369.358 391.891 369.358 391.891 362.656 403.5 c 2,19,-1
 267.531 568.25 l 1,20,-1
 172.406 403.5 l 2,21,22
 165.712 391.903 165.712 391.903 154.125 398.594 c 128,-1,23
 142.516 405.296 142.516 405.296 149.22 416.906 c 2,24,-1
 244.312 581.656 l 1,25,-1
 54.0947 581.656 l 2,26,27
 48.543 581.656 48.543 581.656 44.6152 585.571 c 128,-1,28
 40.6875 589.486 40.6875 589.486 40.6875 595.031 c 128,-1,29
 40.6875 600.579 40.6875 600.579 44.6162 604.508 c 128,-1,30
 48.5459 608.438 48.5459 608.438 54.0947 608.438 c 2,31,-1
 244.345 608.438 l 1,32,-1
 149.188 773.219 l 2,33,34
 142.505 784.792 142.505 784.792 154.125 791.5 c 0,35,36
 157.054 793.192 157.054 793.192 160.438 793.281 c 0,0,1
EndSplineSet
EndChar
StartChar: plus
Encoding: 43 43 12
Width: 664
GlyphClass: 2
Flags: W
Fore
324.616 641.75 m 128,-1,1
 330.164 641.75 330.164 641.75 334.077 637.836 c 128,-1,2
 337.991 633.923 337.991 633.923 337.991 628.375 c 2,3,-1
 337.991 402.5 l 1,4,-1
 563.866 402.5 l 2,5,6
 569.411 402.5 569.411 402.5 573.326 398.572 c 128,-1,7
 577.241 394.645 577.241 394.645 577.241 389.094 c 128,-1,8
 577.241 383.546 577.241 383.546 573.327 379.633 c 128,-1,9
 569.414 375.719 569.414 375.719 563.866 375.719 c 2,10,-1
 337.991 375.719 l 1,11,-1
 337.991 149.906 l 2,12,13
 337.991 144.355 337.991 144.355 334.076 140.428 c 128,-1,14
 330.161 136.5 330.161 136.5 324.616 136.5 c 128,-1,15
 319.069 136.5 319.069 136.5 315.14 140.43 c 128,-1,16
 311.21 144.359 311.21 144.359 311.21 149.906 c 2,17,-1
 311.21 375.719 l 1,18,-1
 85.3975 375.719 l 2,19,20
 79.8467 375.719 79.8467 375.719 75.9189 379.634 c 128,-1,21
 71.9912 383.55 71.9912 383.55 71.9912 389.094 c 128,-1,22
 71.9912 394.641 71.9912 394.641 75.9209 398.57 c 128,-1,23
 79.8506 402.5 79.8506 402.5 85.3975 402.5 c 2,24,-1
 311.21 402.5 l 1,25,-1
 311.21 628.375 l 2,26,27
 311.21 633.919 311.21 633.919 315.138 637.835 c 128,-1,0
 319.065 641.75 319.065 641.75 324.616 641.75 c 128,-1,1
EndSplineSet
EndChar
StartChar: comma
Encoding: 44 44 13
Width: 150
GlyphClass: 2
Flags: W
Fore
55.2168 210.627 m 128,-1,1
 60.5068 210.627 60.5068 210.627 64.2539 206.697 c 128,-1,2
 68 202.768 68 202.768 68 197.221 c 2,3,-1
 68 13.9082 l 2,4,5
 68 8.36426 68 8.36426 64.2539 4.44824 c 128,-1,6
 60.5068 0.533203 60.5068 0.533203 55.2168 0.533203 c 128,-1,7
 49.9258 0.533203 49.9258 0.533203 46.1982 4.44727 c 128,-1,8
 42.4619 8.36133 42.4619 8.36133 42.4619 13.9082 c 2,9,-1
 42.4619 197.221 l 2,10,11
 42.4619 202.771 42.4619 202.771 46.1982 206.699 c 128,-1,0
 49.9258 210.627 49.9258 210.627 55.2168 210.627 c 128,-1,1
EndSplineSet
EndChar
StartChar: hyphen
Encoding: 45 45 14
Width: 276
GlyphClass: 2
Flags: W
Fore
26.1973 238.366 m 128,-1,1
 26.1973 243.914 26.1973 243.914 29.251 247.844 c 128,-1,2
 32.3047 251.772 32.3047 251.772 36.6172 251.772 c 2,3,-1
 251.604 251.772 l 2,4,5
 255.916 251.772 255.916 251.772 258.954 247.845 c 128,-1,6
 262 243.917 262 243.917 262 238.366 c 128,-1,7
 262 232.818 262 232.818 258.954 228.905 c 128,-1,8
 255.916 224.991 255.916 224.991 251.604 224.991 c 2,9,-1
 36.6172 224.991 l 2,10,11
 32.3047 224.991 32.3047 224.991 29.251 228.906 c 128,-1,0
 26.1973 232.822 26.1973 232.822 26.1973 238.366 c 128,-1,1
EndSplineSet
EndChar
StartChar: period
Encoding: 46 46 15
Width: 116
GlyphClass: 2
Flags: W
Fore
55.5 13.4629 m 2,0,1
 55.5 7.88574 55.5 7.88574 52.4541 3.95898 c 128,-1,2
 49.415 0.0332031 49.415 0.0332031 45.1123 0.0332031 c 128,-1,3
 40.8105 0.0332031 40.8105 0.0332031 37.7715 3.95898 c 128,-1,4
 34.7256 7.88574 34.7256 7.88574 34.7256 13.4336 c 2,5,-1
 34.7256 13.5049 l 2,6,7
 34.7256 19.0527 34.7256 19.0527 37.7715 22.9785 c 128,-1,8
 40.8105 26.9043 40.8105 26.9043 45.1123 26.9043 c 128,-1,9
 49.415 26.9043 49.415 26.9043 52.4541 22.9785 c 128,-1,10
 55.5 19.0518 55.5 19.0518 55.5 13.5049 c 2,11,-1
 55.5 13.4629 l 2,0,1
EndSplineSet
EndChar
StartChar: slash
Encoding: 47 47 16
Width: 636
GlyphClass: 2
Flags: W
Fore
45.1055 9.87695 m 132,-1,1
 34.4314 17.9191 34.4314 17.9191 42.4668 28.6514 c 6,2,-1
 545.112 700 l 6,3,4
 553.129 710.707 553.129 710.707 563.868 702.614 c 132,-1,5
 574.516 694.589 574.516 694.589 566.5 683.883 c 6,6,-1
 63.8555 12.5342 l 6,7,0
 55.8209 1.803 55.8209 1.803 45.1055 9.87695 c 132,-1,1
EndSplineSet
EndChar
StartChar: zero
Encoding: 48 48 17
Width: 548
GlyphClass: 2
Flags: W
Fore
273.781 696.406 m 0,0,1
 392.737 696.406 392.737 696.406 445.791 602.932 c 128,-1,2
 498.844 509.458 498.844 509.458 498.844 333.75 c 0,3,4
 498.844 158.872 498.844 158.872 446.447 80.8262 c 128,-1,5
 394.05 2.78125 394.05 2.78125 271.719 2.78125 c 0,6,7
 157.914 2.78125 157.914 2.78125 102.957 83.8223 c 128,-1,8
 48 164.862 48 164.862 48 335.75 c 0,9,10
 48 506.961 48 506.961 103.886 601.684 c 128,-1,11
 159.771 696.406 159.771 696.406 273.781 696.406 c 0,0,1
273.938 670.516 m 0,12,13
 172.433 670.516 172.433 670.516 123.639 588.915 c 128,-1,14
 74.8438 507.314 74.8438 507.314 74.8438 333.75 c 0,15,16
 74.8438 30.0967 74.8438 30.0967 272.25 30.0967 c 0,17,18
 379.607 30.0967 379.607 30.0967 425.804 98.3936 c 128,-1,19
 472 166.69 472 166.69 472 333.75 c 0,20,21
 472 670.516 472 670.516 273.938 670.516 c 0,12,13
EndSplineSet
EndChar
StartChar: one
Encoding: 49 49 18
Width: 162
GlyphClass: 2
Flags: W
Fore
13.2812 700.531 m 2,0,-1
 103.281 700.531 l 2,1,2
 109.583 700.531 109.583 700.531 113.594 695.656 c 0,3,4
 113.671 695.551 113.671 695.551 113.688 695.531 c 0,5,6
 114.168 694.931 114.168 694.931 114.375 694.625 c 0,7,8
 114.426 694.548 114.426 694.548 114.438 694.531 c 128,-1,9
 114.45 694.511 114.45 694.511 114.473 694.477 c 0,10,11
 116.781 691.062 116.781 691.062 116.781 686.969 c 2,12,-1
 116.781 12.9375 l 2,13,14
 116.781 7.39355 116.781 7.39355 112.854 3.47754 c 128,-1,15
 108.926 -0.4375 108.926 -0.4375 103.375 -0.4375 c 128,-1,16
 97.8271 -0.4375 97.8271 -0.4375 93.9141 3.47656 c 128,-1,17
 90 7.38965 90 7.38965 90 12.9375 c 2,18,-1
 90 673.75 l 1,19,-1
 13.2812 673.75 l 2,20,21
 7.73047 673.75 7.73047 673.75 3.80273 677.665 c 128,-1,22
 -0.125 681.58 -0.125 681.58 -0.125 687.125 c 128,-1,23
 -0.125 692.673 -0.125 692.673 3.80469 696.602 c 128,-1,24
 7.7334 700.531 7.7334 700.531 13.2812 700.531 c 2,0,-1
EndSplineSet
EndChar
StartChar: two
Encoding: 50 50 19
Width: 482
GlyphClass: 2
Flags: W
Fore
216.688 699.75 m 0,0,1
 338.102 699.75 338.102 699.75 387.66 649.925 c 128,-1,2
 437.219 600.1 437.219 600.1 437.219 479.75 c 0,3,4
 437.219 413.244 437.219 413.244 418.543 373.475 c 128,-1,5
 399.868 333.704 399.868 333.704 351.445 312.258 c 128,-1,6
 303.021 290.812 303.021 290.812 218.75 290.812 c 0,7,8
 152.333 290.812 152.333 290.812 113.166 253.53 c 128,-1,9
 74 216.248 74 216.248 74 149.438 c 2,10,-1
 73.2188 30.1562 l 1,11,-1
 423.375 30.6875 l 2,12,13
 431.772 30.6875 431.772 30.6875 435.438 23.125 c 1,14,15
 437.583 22.3633 437.583 22.3633 436.438 20.2188 c 1,16,17
 436.781 18.624 436.781 18.624 436.781 17.3125 c 0,18,19
 436.781 11.7656 436.781 11.7656 432.852 7.83594 c 128,-1,20
 428.922 3.90625 428.922 3.90625 423.375 3.90625 c 0,21,22
 421.906 3.90625 421.906 3.90625 420.688 4.15625 c 1,23,-1
 65.4062 3.75 l 2,24,25
 58.3955 3.90625 58.3955 3.90625 52.8203 9.02539 c 128,-1,26
 47.2441 14.1445 47.2441 14.1445 47.2441 20.4688 c 2,27,-1
 47.4688 157.75 l 2,28,29
 47.4688 182.382 47.4688 182.382 56.9375 208.601 c 128,-1,30
 66.4062 234.82 66.4062 234.82 85.5215 260.099 c 128,-1,31
 104.636 285.377 104.636 285.377 139.85 301.532 c 128,-1,32
 175.062 317.688 175.062 317.688 220.406 317.688 c 0,33,34
 324.037 317.688 324.037 317.688 367.753 352.854 c 128,-1,35
 411.469 388.021 411.469 388.021 411.469 479.75 c 0,36,37
 411.469 588.738 411.469 588.738 369.058 633.291 c 128,-1,38
 326.646 677.844 326.646 677.844 216.688 677.844 c 0,39,40
 149.041 677.844 149.041 677.844 111.13 651.42 c 128,-1,41
 73.2188 624.995 73.2188 624.995 73.2188 571.75 c 1,42,43
 73.875 569.634 73.875 569.634 73.875 567.625 c 0,44,45
 73.875 562.078 73.875 562.078 69.9453 558.148 c 128,-1,46
 66.0156 554.219 66.0156 554.219 60.4688 554.219 c 128,-1,47
 54.9209 554.219 54.9209 554.219 50.9922 558.148 c 128,-1,48
 47.0625 562.077 47.0625 562.077 47.0625 567.625 c 0,49,50
 47.0625 570.075 47.0625 570.075 47.9375 572.375 c 1,51,-1
 47.4688 571.75 l 1,52,53
 47.4688 632.944 47.4688 632.944 89.873 666.348 c 128,-1,54
 132.276 699.75 132.276 699.75 216.688 699.75 c 0,0,1
EndSplineSet
EndChar
StartChar: three
Encoding: 51 51 20
Width: 482
GlyphClass: 2
Flags: W
Fore
219.312 695.75 m 0,0,1
 433.094 695.75 433.094 695.75 433.094 467.75 c 0,2,3
 433.094 423.611 433.094 423.611 425.112 398.312 c 128,-1,4
 417.131 373.012 417.131 373.012 393.094 345.75 c 1,5,6
 416.887 318.74 416.887 318.74 424.811 292.293 c 128,-1,7
 432.734 265.845 432.734 265.845 433.094 223.75 c 0,8,9
 433.094 107.388 433.094 107.388 388.814 53.5693 c 128,-1,10
 344.536 -0.25 344.536 -0.25 229.094 -0.25 c 0,11,12
 130.896 -0.25 130.896 -0.25 85.3701 36.0674 c 128,-1,13
 39.8438 72.3848 39.8438 72.3848 39.8438 128.531 c 0,14,15
 39.8438 134.078 39.8438 134.078 43.7734 138.008 c 128,-1,16
 47.7031 141.938 47.7031 141.938 53.25 141.938 c 1,17,18
 66.3145 139.826 66.3145 139.826 66.625 127.688 c 1,19,20
 66.6787 127.695 66.6787 127.695 66.8398 127.714 c 1,21,22
 67.0938 77.6709 67.0938 77.6709 112.32 52.2568 c 128,-1,23
 157.547 26.8438 157.547 26.8438 231.094 26.8438 c 0,24,25
 327.403 26.8438 327.403 26.8438 367.357 72.6797 c 128,-1,26
 407.312 118.517 407.312 118.517 407.312 223.75 c 0,27,28
 406.037 271.875 406.037 271.875 383.924 312.088 c 1,29,30
 367.48 324.811 367.48 324.811 344.396 327.077 c 128,-1,31
 321.312 329.344 321.312 329.344 229.406 329.344 c 0,32,33
 223.855 329.344 223.855 329.344 219.928 333.259 c 128,-1,34
 216 337.175 216 337.175 216 342.719 c 128,-1,35
 216 348.266 216 348.266 219.93 352.195 c 128,-1,36
 223.859 356.125 223.859 356.125 229.406 356.125 c 0,37,38
 305.586 353.173 305.586 353.173 336.655 354.89 c 128,-1,39
 367.725 356.606 367.725 356.606 384.531 375.938 c 1,40,41
 389.164 384.043 389.164 384.043 398.238 418.546 c 128,-1,42
 407.312 453.049 407.312 453.049 407.312 467.75 c 0,43,44
 407.312 560.511 407.312 560.511 360.4 614.584 c 128,-1,45
 313.488 668.656 313.488 668.656 219.312 668.656 c 0,46,47
 72.9307 668.656 72.9307 668.656 66.2188 562.438 c 0,48,49
 66.2188 556.89 66.2188 556.89 62.2891 552.961 c 128,-1,50
 58.3604 549.031 58.3604 549.031 52.8125 549.031 c 128,-1,51
 47.2656 549.031 47.2656 549.031 43.3359 552.961 c 128,-1,52
 39.4062 556.891 39.4062 556.891 39.4062 562.438 c 0,53,54
 39.4062 634.25 39.4062 634.25 83.5918 665 c 128,-1,55
 127.778 695.75 127.778 695.75 219.312 695.75 c 0,0,1
EndSplineSet
EndChar
StartChar: four
Encoding: 52 52 21
Width: 520
GlyphClass: 2
Flags: W
Fore
370.375 698.781 m 0,0,1
 371.688 698.781 371.688 698.781 373.062 698.5 c 0,2,3
 373.14 698.472 373.14 698.472 373.156 698.469 c 0,4,5
 376.342 697.991 376.342 697.991 378.969 696.125 c 0,6,7
 387.26 690.233 387.26 690.233 383.781 680.688 c 1,8,-1
 383.781 219.688 l 1,9,-1
 470.5 219.688 l 2,10,11
 476.044 219.688 476.044 219.688 479.959 215.76 c 128,-1,12
 483.875 211.831 483.875 211.831 483.875 206.281 c 128,-1,13
 483.875 200.734 483.875 200.734 479.961 196.82 c 128,-1,14
 476.047 192.906 476.047 192.906 470.5 192.906 c 2,15,-1
 383.781 192.906 l 1,16,-1
 383.781 14.125 l 2,17,18
 383.781 8.58105 383.781 8.58105 379.854 4.66504 c 128,-1,19
 375.926 0.75 375.926 0.75 370.375 0.75 c 128,-1,20
 364.828 0.75 364.828 0.75 360.914 4.66406 c 128,-1,21
 357 8.57812 357 8.57812 357 14.125 c 2,22,-1
 357 192.906 l 1,23,-1
 64.3125 192.906 l 1,24,25
 60.8223 191.938 60.8223 191.938 57.125 191.938 c 0,26,27
 46.0303 191.938 46.0303 191.938 38.1875 199.78 c 128,-1,28
 30.3438 207.623 30.3438 207.623 30.3438 218.719 c 0,29,30
 30.6602 222.718 30.6602 222.718 35.6875 233.844 c 1,31,-1
 357.5 689.031 l 1,32,33
 360.264 698.781 360.264 698.781 370.375 698.781 c 0,0,1
357 641.969 m 1,34,-1
 58.5 219.688 l 1,35,-1
 357 219.688 l 1,36,-1
 357 641.969 l 1,34,-1
EndSplineSet
EndChar
StartChar: five
Encoding: 53 53 22
Width: 488
GlyphClass: 2
Flags: W
Fore
66.875 696.5 m 2,0,-1
 431.656 696.5 l 2,1,2
 437.203 696.5 437.203 696.5 441.133 692.57 c 128,-1,3
 445.062 688.642 445.062 688.642 445.062 683.094 c 128,-1,4
 445.062 677.546 445.062 677.546 441.133 673.617 c 128,-1,5
 437.203 669.688 437.203 669.688 431.656 669.688 c 2,6,-1
 79.5 669.812 l 1,7,-1
 79.5 409.688 l 1,8,-1
 217 409.688 l 2,9,10
 347.924 409.688 347.924 409.688 396.711 368.652 c 128,-1,11
 445.5 327.617 445.5 327.617 445.5 217.75 c 0,12,13
 445.5 99.6328 445.5 99.6328 398.898 49.6914 c 128,-1,14
 352.299 -0.25 352.299 -0.25 229.5 -0.25 c 0,15,16
 175.461 -0.25 175.461 -0.25 140.834 7.74512 c 128,-1,17
 106.209 15.7393 106.209 15.7393 87.2266 34.0186 c 128,-1,18
 68.2441 52.2979 68.2441 52.2979 60.7402 75.4717 c 128,-1,19
 53.2363 98.6455 53.2363 98.6455 51.4375 135.312 c 0,20,21
 51.4375 140.859 51.4375 140.859 55.3672 144.789 c 128,-1,22
 59.2969 148.719 59.2969 148.719 64.8438 148.719 c 128,-1,23
 70.3906 148.719 70.3906 148.719 74.3203 144.789 c 128,-1,24
 78.25 140.859 78.25 140.859 78.25 135.312 c 0,25,26
 78.25 76.2969 78.25 76.2969 112.566 50.5078 c 128,-1,27
 146.881 24.7188 146.881 24.7188 229.5 24.7188 c 0,28,29
 283.041 24.7188 283.041 24.7188 320.611 39.2793 c 128,-1,30
 358.18 53.8398 358.18 53.8398 378.482 81.2051 c 128,-1,31
 398.785 108.571 398.785 108.571 407.518 141.645 c 128,-1,32
 416.25 174.719 416.25 174.719 416.25 217.75 c 0,33,34
 416.25 295.687 416.25 295.687 377.736 339.234 c 128,-1,35
 339.225 382.781 339.225 382.781 260.562 382.781 c 2,36,-1
 65.8125 381.688 l 2,37,38
 60.2656 381.688 60.2656 381.688 56.3359 385.617 c 128,-1,39
 52.4062 389.547 52.4062 389.547 52.4062 395.094 c 2,40,-1
 51.5 683.094 l 2,41,42
 51.5 688.485 51.5 688.485 56.3203 692.492 c 128,-1,43
 61.1406 696.5 61.1406 696.5 66.875 696.5 c 2,0,-1
EndSplineSet
EndChar
StartChar: six
Encoding: 54 54 23
Width: 466
GlyphClass: 2
Flags: W
Fore
229.625 695.031 m 0,0,1
 265.99 695.031 265.99 695.031 297.674 686.628 c 128,-1,2
 329.359 678.224 329.359 678.224 357.607 659.781 c 128,-1,3
 385.854 641.339 385.854 641.339 402.287 606.804 c 128,-1,4
 418.719 572.27 418.719 572.27 418.719 525.062 c 0,5,6
 418.436 519.748 418.436 519.748 414.58 516.062 c 128,-1,7
 410.723 512.375 410.723 512.375 405.375 512.375 c 128,-1,8
 399.828 512.375 399.828 512.375 395.898 516.305 c 128,-1,9
 391.969 520.234 391.969 520.234 391.969 525.781 c 0,10,11
 391.969 597.272 391.969 597.272 349.143 632.512 c 128,-1,12
 306.318 667.75 306.318 667.75 228.875 667.75 c 0,13,14
 148.52 667.75 148.52 667.75 115.01 612.843 c 128,-1,15
 81.5 557.936 81.5 557.936 81.5 448.594 c 2,16,-1
 82.5312 324.344 l 1,17,18
 102.105 343.095 102.105 343.095 134.307 351.984 c 128,-1,19
 166.508 360.873 166.508 360.873 228.281 365.719 c 0,20,21
 323.039 373.151 323.039 373.151 371.238 330.652 c 128,-1,22
 419.438 288.154 419.438 288.154 419.438 181.406 c 0,23,24
 419.438 84.8906 419.438 84.8906 371.91 42.0518 c 128,-1,25
 324.385 -0.787109 324.385 -0.787109 233.781 -1.1875 c 0,26,27
 54.6602 -1.41211 54.6602 -1.41211 52.1562 179.156 c 2,28,-1
 53.5 474.469 l 2,29,30
 53.5 592.432 53.5 592.432 99.084 643.731 c 128,-1,31
 144.67 695.031 144.67 695.031 229.625 695.031 c 0,0,1
247.719 340.969 m 0,32,33
 228.959 341.038 228.959 341.038 207.531 338.438 c 0,34,35
 182.316 335.378 182.316 335.378 169.729 333.287 c 128,-1,36
 157.143 331.196 157.143 331.196 137.154 324.566 c 128,-1,37
 117.166 317.937 117.166 317.937 107.414 308.463 c 128,-1,38
 97.6641 298.988 97.6641 298.988 89.8164 281.451 c 128,-1,39
 81.9688 263.913 81.9688 263.913 81.9688 239.719 c 0,40,41
 81.9688 180.979 81.9688 180.979 90.1504 139.988 c 128,-1,42
 98.3301 98.998 98.3301 98.998 110.139 77.0029 c 128,-1,43
 121.947 55.0078 121.947 55.0078 143.062 43.21 c 128,-1,44
 164.18 31.4121 164.18 31.4121 181.818 28.7686 c 128,-1,45
 199.457 26.125 199.457 26.125 227.531 26.125 c 0,46,47
 307.947 26.125 307.947 26.125 350.051 62.5732 c 128,-1,48
 392.156 99.0215 392.156 99.0215 392.156 179.281 c 0,49,50
 392.156 340.44 392.156 340.44 247.719 340.969 c 0,32,33
EndSplineSet
EndChar
StartChar: seven
Encoding: 55 55 24
Width: 508
GlyphClass: 2
Flags: W
Fore
484.5 682.217 m 1,0,1
 507.941 688.498 507.941 688.498 516.215 676.48 c 128,-1,2
 524.49 664.463 524.49 664.463 507.688 642.029 c 2,3,-1
 56.2754 -1.04688 l 2,4,5
 49.582 -12.6426 49.582 -12.6426 37.9941 -5.95312 c 128,-1,6
 26.3848 0.748047 26.3848 0.748047 33.0879 12.3594 c 2,7,-1
 484.469 655.436 l 1,8,-1
 44.25 655.436 l 2,9,10
 38.6992 655.436 38.6992 655.436 34.7715 659.351 c 128,-1,11
 30.8438 663.267 30.8438 663.267 30.8438 668.811 c 128,-1,12
 30.8438 674.357 30.8438 674.357 34.7734 678.287 c 128,-1,13
 38.7031 682.217 38.7031 682.217 44.25 682.217 c 2,14,-1
 484.5 682.217 l 1,0,1
EndSplineSet
EndChar
StartChar: eight
Encoding: 56 56 25
Width: 516
GlyphClass: 2
Flags: W
Fore
261.335 700.052 m 0,0,1
 157.443 700.052 157.443 700.052 103.65 649.715 c 128,-1,2
 49.8594 599.378 49.8594 599.378 49.8594 508.896 c 0,3,4
 49.8594 433.987 49.8594 433.987 80.7803 392.896 c 128,-1,5
 111.703 351.804 111.703 351.804 164.361 344.427 c 1,6,7
 111.467 332.344 111.467 332.344 80.9922 288.983 c 128,-1,8
 50.5186 245.622 50.5186 245.622 50.5186 172.146 c 0,9,10
 50.5186 80.3486 50.5186 80.3486 98.2002 39.1846 c 128,-1,11
 145.883 -1.97949 145.883 -1.97949 260.02 -1.97949 c 0,12,13
 373.136 -1.97949 373.136 -1.97949 421.437 38.1895 c 128,-1,14
 469.738 78.3594 469.738 78.3594 469.738 172.146 c 0,15,16
 469.738 250.761 469.738 250.761 440.854 294.593 c 128,-1,17
 411.974 338.425 411.974 338.425 359.355 345.771 c 1,18,19
 412.013 353.525 412.013 353.525 440.545 394.272 c 128,-1,20
 469.078 435.02 469.078 435.02 469.078 504.896 c 0,21,22
 469.078 599.966 469.078 599.966 419.974 650.009 c 128,-1,23
 370.869 700.052 370.869 700.052 261.335 700.052 c 0,0,1
259.469 672.771 m 0,24,25
 358.303 672.771 358.303 672.771 400.538 629.177 c 128,-1,26
 442.772 585.584 442.772 585.584 442.772 504.146 c 0,27,28
 442.772 360.083 442.772 360.083 259.469 360.083 c 0,29,30
 167.317 360.083 167.317 360.083 121.742 398.312 c 128,-1,31
 76.1641 436.54 76.1641 436.54 76.1641 508.146 c 0,32,33
 76.1641 584.88 76.1641 584.88 125.828 628.825 c 128,-1,34
 175.493 672.771 175.493 672.771 259.469 672.771 c 0,24,25
259.358 330.771 m 0,35,36
 298.04 330.942 298.04 330.942 328.986 323.664 c 128,-1,37
 359.932 316.386 359.932 316.386 386.735 299.321 c 128,-1,38
 413.535 282.257 413.535 282.257 428.383 249.807 c 128,-1,39
 443.231 217.357 443.231 217.357 443.433 171.396 c 0,40,41
 443.433 96.1562 443.433 96.1562 401.471 61.7451 c 128,-1,42
 359.508 27.333 359.508 27.333 260.126 27.333 c 0,43,44
 167.953 27.333 167.953 27.333 122.389 64.498 c 128,-1,45
 76.8252 101.663 76.8252 101.663 76.8252 171.396 c 0,46,47
 76.8252 246.129 76.8252 246.129 129.883 291.305 c 128,-1,48
 182.941 336.479 182.941 336.479 259.358 330.771 c 0,35,36
EndSplineSet
EndChar
StartChar: nine
Encoding: 57 57 26
Width: 448
GlyphClass: 2
Flags: W
Fore
215.656 696.438 m 0,0,1
 394.777 696.662 394.777 696.662 397.281 516.094 c 2,2,-1
 395.938 220.781 l 2,3,4
 395.938 99.8994 395.938 99.8994 358.863 50.0586 c 128,-1,5
 321.788 0.21875 321.788 0.21875 239.812 0.21875 c 0,6,7
 181.734 0.21875 181.734 0.21875 136.721 25.4141 c 128,-1,8
 91.707 50.6094 91.707 50.6094 76.7461 85.4541 c 0,9,10
 68.9785 99.6611 68.9785 99.6611 79.6416 107.392 c 0,11,12
 92.2539 116.535 92.2539 116.535 101.135 100.442 c 0,13,14
 119.209 63.8496 119.209 63.8496 157.9 45.6748 c 128,-1,15
 196.593 27.5 196.593 27.5 240.562 27.5 c 0,16,17
 273.52 27.5 273.52 27.5 296.667 37.4961 c 128,-1,18
 319.814 47.4932 319.814 47.4932 333.673 64.3184 c 128,-1,19
 347.53 81.1445 347.53 81.1445 355.235 110.239 c 128,-1,20
 362.94 139.334 362.94 139.334 365.438 170.265 c 128,-1,21
 367.934 201.196 367.934 201.196 367.934 246.669 c 2,22,-1
 366.906 370.906 l 1,23,24
 347.334 352.155 347.334 352.155 315.132 343.266 c 128,-1,25
 282.93 334.377 282.93 334.377 221.156 329.531 c 0,26,27
 126.398 322.099 126.398 322.099 78.1992 364.598 c 128,-1,28
 30 407.096 30 407.096 30 513.844 c 0,29,30
 30 610.359 30 610.359 77.5264 653.198 c 128,-1,31
 125.053 696.037 125.053 696.037 215.656 696.438 c 0,0,1
221.906 669.125 m 0,32,33
 141.49 669.125 141.49 669.125 99.3857 632.677 c 128,-1,34
 57.2812 596.229 57.2812 596.229 57.2812 515.969 c 0,35,36
 57.2812 334.413 57.2812 334.413 241.906 356.812 c 0,37,38
 267.121 359.872 267.121 359.872 279.708 361.963 c 128,-1,39
 292.295 364.054 292.295 364.054 312.283 370.684 c 128,-1,40
 332.271 377.313 332.271 377.313 342.022 386.787 c 128,-1,41
 351.773 396.262 351.773 396.262 359.621 413.799 c 128,-1,42
 367.469 431.337 367.469 431.337 367.469 455.531 c 0,43,44
 367.469 514.271 367.469 514.271 359.287 555.262 c 128,-1,45
 351.106 596.252 351.106 596.252 339.299 618.247 c 128,-1,46
 327.49 640.242 327.49 640.242 306.374 652.04 c 128,-1,47
 285.258 663.838 285.258 663.838 267.619 666.481 c 128,-1,48
 249.98 669.125 249.98 669.125 221.906 669.125 c 0,32,33
EndSplineSet
EndChar
StartChar: colon
Encoding: 58 58 27
Width: 200
GlyphClass: 2
Flags: W
Fore
101 380.056 m 128,-1,1
 101 374.479 101 374.479 97.0742 370.553 c 128,-1,2
 93.1484 366.627 93.1484 366.627 87.6006 366.627 c 128,-1,3
 82.0527 366.627 82.0527 366.627 78.127 370.553 c 128,-1,4
 74.2002 374.479 74.2002 374.479 74.2002 380.026 c 0,5,-1
 74.2002 380.098 l 2,6,7
 74.2002 385.646 74.2002 385.646 78.127 389.571 c 128,-1,8
 82.0527 393.498 82.0527 393.498 87.6006 393.498 c 128,-1,9
 93.1484 393.498 93.1484 393.498 97.0742 389.571 c 128,-1,0
 101 385.646 101 385.646 101 380.056 c 128,-1,1
101 153.723 m 128,-1,11
 101 148.146 101 148.146 97.0742 144.22 c 128,-1,12
 93.1484 140.293 93.1484 140.293 87.6006 140.293 c 128,-1,13
 82.0527 140.293 82.0527 140.293 78.127 144.22 c 128,-1,14
 74.2002 148.146 74.2002 148.146 74.2002 153.693 c 0,15,-1
 74.2002 153.765 l 2,16,17
 74.2002 159.312 74.2002 159.312 78.127 163.238 c 128,-1,18
 82.0527 167.165 82.0527 167.165 87.6006 167.165 c 128,-1,19
 93.1484 167.165 93.1484 167.165 97.0742 163.238 c 128,-1,10
 101 159.312 101 159.312 101 153.723 c 128,-1,11
EndSplineSet
EndChar
StartChar: semicolon
Encoding: 59 59 28
Width: 196
GlyphClass: 2
Flags: W
Fore
96.0918 211.329 m 128,-1,1
 101.64 211.329 101.64 211.329 106.104 206.864 c 0,2,3
 109.5 202.399 109.5 202.399 109.5 197.923 c 2,4,-1
 109.5 14.6104 l 2,5,6
 109.5 9.06543 109.5 9.06543 105.571 5.15039 c 128,-1,7
 101.643 1.23535 101.643 1.23535 96.0918 1.23535 c 128,-1,8
 90.5449 1.23535 90.5449 1.23535 86.6309 5.14844 c 128,-1,9
 82.7168 9.0625 82.7168 9.0625 82.7168 14.6104 c 2,10,-1
 82.7168 197.923 l 2,11,12
 82.7168 203.474 82.7168 203.474 86.6328 207.401 c 128,-1,0
 90.5479 211.329 90.5479 211.329 96.0918 211.329 c 128,-1,1
108.801 419.633 m 128,-1,14
 108.801 414.056 108.801 414.056 104.875 410.13 c 128,-1,15
 100.949 406.204 100.949 406.204 95.4014 406.204 c 128,-1,16
 89.8535 406.204 89.8535 406.204 85.9277 410.13 c 128,-1,17
 82.002 414.056 82.002 414.056 82.002 419.604 c 0,18,-1
 82.002 419.675 l 2,19,20
 82.002 425.223 82.002 425.223 85.9277 429.149 c 128,-1,21
 89.8535 433.075 89.8535 433.075 95.4014 433.075 c 128,-1,22
 100.949 433.075 100.949 433.075 104.875 429.149 c 128,-1,13
 108.801 425.223 108.801 425.223 108.801 419.633 c 128,-1,14
EndSplineSet
EndChar
StartChar: less
Encoding: 60 60 29
Width: 438
GlyphClass: 2
Flags: W
Fore
11.0371 372.16 m 4,0,1
 11.0469 377.702 11.0469 377.702 15.4668 381.629 c 4,2,3
 16.4414 382.496 16.4414 382.496 17.5762 383.192 c 6,4,-1
 328.695 739.339 l 6,5,6
 339.349 748.809 339.349 748.809 350 739.339 c 132,-1,7
 360.653 729.871 360.653 729.871 350 720.401 c 6,8,-1
 204.822 551.651 l 6,9,10
 59.6436 382.901 59.6436 382.901 47.5293 372.004 c 5,11,12
 59.9287 360.955 59.9287 360.955 204.291 191.495 c 6,13,-1
 348.65 22.0342 l 6,14,15
 359.319 12.5508 359.319 12.5508 348.686 3.09766 c 132,-1,16
 338.018 -6.3877 338.018 -6.3877 327.346 3.09766 c 6,17,-1
 15.4326 362.692 l 6,18,19
 15.415 362.708 15.415 362.708 14.623 363.536 c 4,20,21
 11.0273 367.303 11.0273 367.303 11.0371 372.16 c 4,0,1
EndSplineSet
EndChar
StartChar: equal
Encoding: 61 61 30
Width: 494
GlyphClass: 2
Flags: W
Fore
59.2969 495.032 m 128,-1,1
 59.2969 500.58 59.2969 500.58 63.2266 504.51 c 128,-1,2
 67.1553 508.438 67.1553 508.438 72.7031 508.438 c 2,3,-1
 397.5 508.438 l 2,4,5
 403.045 508.439 403.045 508.439 406.96 504.512 c 128,-1,6
 410.875 500.584 410.875 500.584 410.875 495.032 c 128,-1,7
 410.875 489.484 410.875 489.484 406.962 485.57 c 128,-1,8
 403.048 481.657 403.048 481.657 397.5 481.657 c 2,9,-1
 72.7031 481.657 l 2,10,11
 67.1523 481.657 67.1523 481.657 63.2246 485.572 c 128,-1,0
 59.2969 489.488 59.2969 489.488 59.2969 495.032 c 128,-1,1
59.2969 258.244 m 128,-1,13
 59.2969 263.792 59.2969 263.792 63.2266 267.721 c 128,-1,14
 67.1553 271.65 67.1553 271.65 72.7031 271.65 c 2,15,-1
 397.5 271.65 l 2,16,17
 403.045 271.65 403.045 271.65 406.96 267.723 c 128,-1,18
 410.875 263.795 410.875 263.795 410.875 258.244 c 128,-1,19
 410.875 252.696 410.875 252.696 406.962 248.782 c 128,-1,20
 403.048 244.869 403.048 244.869 397.5 244.869 c 2,21,-1
 72.7031 244.869 l 2,22,23
 67.1523 244.869 67.1523 244.869 63.2246 248.784 c 128,-1,12
 59.2969 252.699 59.2969 252.699 59.2969 258.244 c 128,-1,13
EndSplineSet
EndChar
StartChar: greater
Encoding: 62 62 31
Width: 440
GlyphClass: 2
Flags: W
Fore
402.963 372.16 m 0,0,1
 402.953 377.702 402.953 377.702 398.533 381.629 c 0,2,3
 397.559 382.496 397.559 382.496 396.424 383.192 c 2,4,-1
 85.3047 739.339 l 2,5,6
 74.6514 748.809 74.6514 748.809 64 739.339 c 128,-1,7
 53.3467 729.871 53.3467 729.871 64 720.401 c 2,8,-1
 209.178 551.651 l 2,9,10
 354.356 382.901 354.356 382.901 366.471 372.004 c 1,11,12
 354.071 360.955 354.071 360.955 209.709 191.495 c 2,13,-1
 65.3496 22.0342 l 2,14,15
 54.6807 12.5508 54.6807 12.5508 65.3145 3.09766 c 128,-1,16
 75.9824 -6.3877 75.9824 -6.3877 86.6543 3.09766 c 2,17,-1
 398.567 362.692 l 2,18,19
 398.585 362.708 398.585 362.708 399.377 363.536 c 0,20,21
 402.973 367.303 402.973 367.303 402.963 372.16 c 0,0,1
EndSplineSet
EndChar
StartChar: question
Encoding: 63 63 32
Width: 534
GlyphClass: 2
Flags: W
Fore
244 717.375 m 0,0,1
 348.552 717.375 348.552 717.375 392.526 676.44 c 128,-1,2
 436.5 635.506 436.5 635.506 436.5 541.375 c 0,3,4
 436.5 470.166 436.5 470.166 403.147 436.302 c 128,-1,5
 369.796 402.438 369.796 402.438 296.063 402.438 c 0,6,7
 243.465 402.438 243.465 402.438 217.39 371.89 c 128,-1,8
 191.313 341.342 191.313 341.342 191.313 263.062 c 2,9,-1
 190.75 228.438 l 2,10,11
 190.75 222.887 190.75 222.887 186.835 218.959 c 128,-1,12
 182.921 215.031 182.921 215.031 177.376 215.031 c 128,-1,13
 171.828 215.031 171.828 215.031 167.898 218.961 c 128,-1,14
 163.969 222.89 163.969 222.89 163.969 228.438 c 2,15,-1
 164.844 269.25 l 2,16,17
 164.844 429.312 164.844 429.312 297.719 429.312 c 0,18,19
 358.99 429.312 358.99 429.312 384.87 455.862 c 128,-1,20
 410.75 482.412 410.75 482.412 410.75 541.375 c 0,21,22
 410.75 618.064 410.75 618.064 367.994 656.767 c 128,-1,23
 325.238 695.469 325.238 695.469 244 695.469 c 0,24,25
 176.832 695.469 176.832 695.469 139.011 671.288 c 128,-1,26
 101.188 647.106 101.188 647.106 101.188 585.25 c 0,27,28
 101.188 579.706 101.188 579.706 97.2451 575.774 c 128,-1,29
 93.3008 571.844 93.3008 571.844 87.75 571.844 c 128,-1,30
 82.207 571.844 82.207 571.844 78.292 575.771 c 128,-1,31
 74.376 579.7 74.376 579.7 74.376 585.25 c 0,32,33
 74.376 651.334 74.376 651.334 115.698 684.354 c 128,-1,34
 157.02 717.375 157.02 717.375 244 717.375 c 0,0,1
180.802 21.3066 m 128,-1,36
 180.802 15.7295 180.802 15.7295 176.876 11.8027 c 128,-1,37
 172.95 7.87695 172.95 7.87695 167.402 7.87695 c 128,-1,38
 161.854 7.87695 161.854 7.87695 157.929 11.8027 c 128,-1,39
 154.003 15.7295 154.003 15.7295 154.003 21.2773 c 0,40,-1
 154.003 21.3477 l 2,41,42
 154.003 26.8955 154.003 26.8955 157.929 30.8223 c 128,-1,43
 161.854 34.748 161.854 34.748 167.402 34.748 c 128,-1,44
 172.95 34.748 172.95 34.748 176.876 30.8223 c 128,-1,35
 180.802 26.8955 180.802 26.8955 180.802 21.3066 c 128,-1,36
EndSplineSet
EndChar
StartChar: at
Encoding: 64 64 33
Width: 775
GlyphClass: 2
Flags: W
HStem: -94.4375 26<560.75 643.096> 26.0938 27.2812<305.088 413.092> 447.312 26.2812<297.532 454.055> 616.906 30.9688<294.155 499.915>
VStem: 54.7822 27.7178<129.273 339.87> 228.782 27.7178<134.645 373.595> 484.782 25.7178<131.327 362.375> 696.782 25.7178<116.032 377.657>
Fore
373.938 647.875 m 0,0,1
 470.844 647.875 470.844 647.875 538.916 621.638 c 128,-1,2
 606.991 595.4 606.991 595.4 646.948 542.955 c 128,-1,3
 686.906 490.511 686.906 490.511 704.703 419.557 c 128,-1,4
 722.5 348.602 722.5 348.602 722.5 251.75 c 0,5,6
 722.5 147.352 722.5 147.352 708.252 71.8389 c 128,-1,7
 694.002 -3.67285 694.002 -3.67285 661.08 -49.0557 c 128,-1,8
 628.16 -94.4375 628.16 -94.4375 578.375 -94.4375 c 0,9,10
 548.771 -94.4375 548.771 -94.4375 526.776 -68.041 c 128,-1,11
 504.782 -41.6445 504.782 -41.6445 495.009 -9.17773 c 128,-1,12
 485.234 23.2881 485.234 23.2881 481.907 59 c 1,13,14
 463.802 44.6816 463.802 44.6816 430.39 35.209 c 128,-1,15
 396.979 25.7363 396.979 25.7363 373.72 26.0938 c 0,16,17
 310.645 26.0938 310.645 26.0938 269.714 86.3457 c 128,-1,18
 228.782 146.598 228.782 146.598 228.782 251.75 c 0,19,20
 228.782 357.118 228.782 357.118 265.104 415.355 c 128,-1,21
 301.425 473.594 301.425 473.594 374.72 473.594 c 0,22,23
 439.441 473.594 439.441 473.594 474.972 414.945 c 128,-1,24
 510.5 356.296 510.5 356.296 510.5 249.75 c 2,25,-1
 508.5 79.75 l 2,26,27
 507.892 71.2227 507.892 71.2227 512.535 48.4658 c 128,-1,28
 517.18 25.709 517.18 25.709 525.784 -1.08887 c 128,-1,29
 534.389 -27.8877 534.389 -27.8877 550.39 -48.1631 c 128,-1,30
 566.39 -68.4375 566.39 -68.4375 585.188 -68.4375 c 0,31,32
 633.9 -68.4375 633.9 -68.4375 665.341 23.541 c 128,-1,33
 696.782 115.521 696.782 115.521 696.782 251.75 c 0,34,35
 696.782 443.011 696.782 443.011 614.974 529.959 c 128,-1,36
 533.163 616.906 533.163 616.906 376.312 616.906 c 0,37,38
 313.114 616.906 313.114 616.906 262.127 595.97 c 128,-1,39
 211.14 575.033 211.14 575.033 177.849 540.05 c 128,-1,40
 144.557 505.065 144.557 505.065 122.368 457.453 c 128,-1,41
 100.179 409.84 100.179 409.84 90.9531 358.584 c 128,-1,42
 81.7295 307.328 81.7295 307.328 82.5 251.75 c 0,43,44
 82.5 157.537 82.5 157.537 124.813 67.9434 c 128,-1,45
 167.126 -21.6504 167.126 -21.6504 241.312 -64.5 c 1,46,47
 251.938 -66.7578 251.938 -66.7578 251.938 -77.5938 c 0,48,49
 251.938 -83.1416 251.938 -83.1416 248.009 -87.0703 c 128,-1,50
 244.078 -91 244.078 -91 238.532 -91 c 0,51,52
 234.453 -91 234.453 -91 231.032 -88.6875 c 0,53,54
 162.251 -48.2588 162.251 -48.2588 108.517 45.3066 c 128,-1,55
 54.7822 138.873 54.7822 138.873 54.7822 251.75 c 0,56,57
 54.7822 429.362 54.7822 429.362 141.447 538.619 c 128,-1,58
 228.112 647.875 228.112 647.875 373.938 647.875 c 0,0,1
373.22 447.312 m 0,59,60
 314.998 447.312 314.998 447.312 285.749 396.395 c 128,-1,61
 256.5 345.477 256.5 345.477 256.5 251.75 c 0,62,63
 256.5 161.669 256.5 161.669 288.374 107.521 c 128,-1,64
 320.248 53.375 320.248 53.375 370.782 53.375 c 0,65,66
 401.561 53.375 401.561 53.375 420.843 58.7197 c 128,-1,67
 440.123 64.0645 440.123 64.0645 455.664 79.6074 c 128,-1,68
 471.206 95.1504 471.206 95.1504 477.994 125.098 c 128,-1,69
 484.782 155.045 484.782 155.045 484.782 202.531 c 0,70,71
 484.782 325.488 484.782 325.488 460.091 386.4 c 128,-1,72
 435.4 447.312 435.4 447.312 373.22 447.312 c 0,59,60
EndSplineSet
EndChar
StartChar: bracketleft
Encoding: 91 91 60
Width: 346
GlyphClass: 2
Flags: W
Fore
76.7188 743.375 m 2,0,-1
 220.625 743.375 l 2,1,2
 226.173 743.375 226.173 743.375 230.102 739.445 c 128,-1,3
 234.03 735.517 234.03 735.517 234.03 729.969 c 128,-1,4
 234.031 724.425 234.031 724.425 230.104 720.509 c 128,-1,5
 226.176 716.594 226.176 716.594 220.625 716.594 c 2,6,-1
 90 716.594 l 1,7,-1
 90 24.5938 l 1,8,-1
 220.625 24.5938 l 2,9,10
 226.176 24.5938 226.176 24.5938 230.104 20.6787 c 128,-1,11
 234.031 16.7627 234.031 16.7627 234.03 11.2188 c 128,-1,12
 234.03 5.6709 234.03 5.6709 230.102 1.74219 c 128,-1,13
 226.173 -2.1875 226.173 -2.1875 220.625 -2.1875 c 2,14,-1
 76.7188 -2.1875 l 2,15,16
 70.416 -2.1875 70.416 -2.1875 66.4053 2.6875 c 0,17,18
 65.8506 3.38281 65.8506 3.38281 65.625 3.71875 c 2,19,-1
 65.5 3.90625 l 2,20,21
 63.2188 7.28125 63.2188 7.28125 63.2188 11.375 c 2,22,-1
 63.2188 729.812 l 2,23,24
 63.2188 733.906 63.2188 733.906 65.5 737.281 c 2,25,-1
 65.625 737.469 l 2,26,27
 65.8506 737.805 65.8506 737.805 66.3115 738.375 c 0,28,29
 70.416 743.375 70.416 743.375 76.7188 743.375 c 2,0,-1
EndSplineSet
EndChar
StartChar: backslash
Encoding: 92 92 61
Width: 640
GlyphClass: 2
Flags: W
Fore
585.007 9.87695 m 128,-1,1
 595.681 17.9189 595.681 17.9189 587.646 28.6514 c 2,2,-1
 85 700 l 2,3,4
 76.9834 710.707 76.9834 710.707 66.2441 702.614 c 128,-1,5
 55.5967 694.589 55.5967 694.589 63.6123 683.883 c 2,6,-1
 566.257 12.5342 l 2,7,0
 574.291 1.80273 574.291 1.80273 585.007 9.87695 c 128,-1,1
EndSplineSet
EndChar
StartChar: bracketright
Encoding: 93 93 62
Width: 350
GlyphClass: 2
Flags: W
Fore
233.281 743.375 m 2,0,1
 239.584 743.375 239.584 743.375 243.688 738.375 c 0,2,3
 244.149 737.805 244.149 737.805 244.375 737.469 c 2,4,-1
 244.5 737.281 l 2,5,6
 246.781 733.906 246.781 733.906 246.781 729.812 c 2,7,-1
 246.781 11.375 l 2,8,9
 246.781 7.28125 246.781 7.28125 244.5 3.90625 c 2,10,-1
 244.375 3.71875 l 2,11,12
 244.149 3.38281 244.149 3.38281 243.595 2.6875 c 0,13,14
 239.584 -2.1875 239.584 -2.1875 233.281 -2.1875 c 2,15,-1
 89.375 -2.1875 l 2,16,17
 83.8271 -2.1875 83.8271 -2.1875 79.8984 1.74219 c 128,-1,18
 75.9697 5.6709 75.9697 5.6709 75.9697 11.2188 c 128,-1,19
 75.9688 16.7627 75.9688 16.7627 79.8965 20.6787 c 128,-1,20
 83.8242 24.5938 83.8242 24.5938 89.375 24.5938 c 2,21,-1
 220 24.5938 l 1,22,-1
 220 716.594 l 1,23,-1
 89.375 716.594 l 2,24,25
 83.8242 716.594 83.8242 716.594 79.8965 720.509 c 128,-1,26
 75.9688 724.425 75.9688 724.425 75.9697 729.969 c 128,-1,27
 75.9697 735.517 75.9697 735.517 79.8984 739.445 c 128,-1,28
 83.8271 743.375 83.8271 743.375 89.375 743.375 c 2,29,-1
 233.281 743.375 l 2,0,1
EndSplineSet
EndChar
StartChar: asciicircum
Encoding: 94 94 63
Width: 446
GlyphClass: 2
Flags: W
Fore
244.838 800.25 m 0,0,1
 250.38 800.24 250.38 800.24 254.308 796.312 c 0,2,3
 255.172 795.448 255.172 795.448 255.87 794.438 c 2,4,-1
 447.358 566.969 l 2,5,6
 456.826 557.499 456.826 557.499 447.358 548.031 c 128,-1,7
 437.89 538.562 437.89 538.562 428.42 548.031 c 2,8,-1
 342 652.537 l 2,9,10
 255.58 757.044 255.58 757.044 244.683 767.812 c 1,11,12
 233.634 756.791 233.634 756.791 150.46 651.427 c 2,13,-1
 67.2871 546.062 l 2,14,15
 57.8047 536.578 57.8047 536.578 48.3506 546.031 c 128,-1,16
 38.8662 555.516 38.8662 555.516 48.3506 565 c 2,17,-1
 235.369 796.344 l 2,18,19
 235.383 796.356 235.383 796.356 236.214 797.062 c 0,20,21
 239.979 800.258 239.979 800.258 244.838 800.25 c 0,0,1
EndSplineSet
EndChar
StartChar: underscore
Encoding: 95 95 64
Width: 516
GlyphClass: 2
Flags: W
Fore
33.0947 14.2217 m 128,-1,1
 33.0947 19.7695 33.0947 19.7695 37.707 22.6348 c 1,2,3
 42.6992 27.6279 42.6992 27.6279 46.5 27.6279 c 2,4,-1
 448.617 27.6279 l 2,5,6
 454.161 27.6279 454.161 27.6279 458.076 23.7002 c 128,-1,7
 461.992 19.7715 461.992 19.7715 461.992 14.2217 c 128,-1,8
 461.992 8.6748 461.992 8.6748 458.078 4.76074 c 128,-1,9
 454.164 0.84668 454.164 0.84668 448.617 0.84668 c 2,10,-1
 46.5 0.84668 l 2,11,12
 40.9492 0.84668 40.9492 0.84668 37.0215 4.76172 c 128,-1,0
 33.0947 8.67676 33.0947 8.67676 33.0947 14.2217 c 128,-1,1
EndSplineSet
EndChar
StartChar: grave
Encoding: 96 96 65
Width: 370
GlyphClass: 2
Flags: W
HStem: 534.188 180.361<96.1143 266.159>
VStem: 77.2285 207.771<535.835 712.897>
Fore
77.2285 712.897 m 132,-1,1
 85.915 723.255 85.915 723.255 96.1143 714.549 c 6,2,-1
 283.375 554.704 l 6,3,4
 293.55 546.019 293.55 546.019 285 535.835 c 132,-1,5
 276.331 525.505 276.331 525.505 266.159 534.188 c 6,6,-1
 78.8994 694.034 l 6,7,0
 68.7012 702.739 68.7012 702.739 77.2285 712.897 c 132,-1,1
EndSplineSet
EndChar
StartChar: a
Encoding: 97 97 66
Width: 370
GlyphClass: 2
Flags: W
Fore
192.95 456.007 m 0,0,1
 255.831 456.007 255.831 456.007 292.452 400.721 c 128,-1,2
 329.073 345.436 329.073 345.436 329.073 227.444 c 2,3,-1
 327.418 0.824219 l 2,4,5
 327.419 -4.72266 327.419 -4.72266 323.504 -8.63672 c 128,-1,6
 319.59 -12.5508 319.59 -12.5508 314.043 -12.5508 c 128,-1,7
 308.493 -12.5508 308.493 -12.5508 304.564 -8.63574 c 128,-1,8
 300.637 -4.7207 300.637 -4.7207 300.637 0.824219 c 2,9,-1
 300.637 49.1748 l 1,10,11
 259.59 -0.868164 259.59 -0.868164 192.95 -0.868164 c 0,12,13
 117.609 -0.868164 117.609 -0.868164 79.7012 60.2617 c 128,-1,14
 41.793 121.392 41.793 121.392 41.793 229.693 c 0,15,16
 41.793 335.113 41.793 335.113 83.8193 395.561 c 128,-1,17
 125.846 456.007 125.846 456.007 192.95 456.007 c 0,0,1
193.7 428.726 m 128,-1,19
 137.926 428.726 137.926 428.726 103.5 374.961 c 128,-1,20
 69.0732 321.195 69.0732 321.195 69.0732 227.569 c 0,21,22
 69.0732 134.164 69.0732 134.164 100.141 80.2881 c 128,-1,23
 131.209 26.4131 131.209 26.4131 193.7 26.4131 c 0,24,25
 246.246 26.4131 246.246 26.4131 273.004 63.7461 c 128,-1,26
 299.762 101.079 299.762 101.079 299.762 193.666 c 0,27,28
 299.762 322.562 299.762 322.562 274.586 375.645 c 128,-1,18
 249.411 428.726 249.411 428.726 193.7 428.726 c 128,-1,19
EndSplineSet
KernsSLIFO: 75 -48 0 0 15 -84 0 0 13 -388 0 0
EndChar
StartChar: b
Encoding: 98 98 67
Width: 392
GlyphClass: 2
Flags: W
Fore
194.75 -4.19043 m 1,0,1
 118.615 -4.19043 118.615 -4.19043 84.6211 51.1807 c 128,-1,2
 50.626 106.551 50.626 106.551 50.626 234.372 c 2,3,-1
 52.2822 643.935 l 2,4,5
 52.2812 649.481 52.2812 649.481 56.1953 653.396 c 128,-1,6
 60.1094 657.31 60.1094 657.31 65.6572 657.31 c 128,-1,7
 71.207 657.31 71.207 657.31 75.1348 653.395 c 128,-1,8
 79.0635 649.479 79.0635 649.479 79.0635 643.935 c 2,9,-1
 79.0635 422.642 l 1,10,11
 120.11 472.685 120.11 472.685 194.75 472.685 c 0,12,13
 281.236 472.685 281.236 472.685 317.572 414.375 c 128,-1,14
 353.907 356.063 353.907 356.063 353.907 232.122 c 0,15,16
 353.906 101.345 353.906 101.345 319.281 48.5771 c 128,-1,17
 284.657 -4.19043 284.657 -4.19043 194.75 -4.19043 c 1,18,-1
 194.75 -4.19043 l 1,0,1
194 23.0908 m 0,19,20
 269.732 23.0908 269.732 23.0908 298.18 69.1641 c 128,-1,21
 326.626 115.237 326.626 115.237 326.626 234.247 c 0,22,23
 326.625 336.732 326.625 336.732 296.863 391.067 c 128,-1,24
 267.101 445.403 267.101 445.403 194 445.403 c 0,25,26
 124.604 445.403 124.604 445.403 102.271 407.513 c 128,-1,27
 79.9385 369.621 79.9385 369.621 79.9385 268.15 c 0,28,29
 79.9385 132.923 79.9385 132.923 104.995 78.0068 c 128,-1,30
 130.052 23.0908 130.052 23.0908 194 23.0908 c 0,19,20
EndSplineSet
KernsSLIFO: 75 -46 0 0 15 -108 0 0 13 -388 0 0
EndChar
StartChar: c
Encoding: 99 99 68
Width: 340
GlyphClass: 2
Flags: W
Fore
203.585 476.625 m 0,0,1
 263.611 476.625 263.611 476.625 293.022 436.406 c 1,2,3
 297.615 432.379 297.615 432.379 297.615 426.344 c 0,4,5
 297.615 420.799 297.615 420.799 293.688 416.884 c 128,-1,6
 289.762 412.969 289.762 412.969 284.21 412.969 c 0,7,8
 276.075 413.855 276.075 413.855 272.522 419.812 c 1,9,10
 246.042 450.5 246.042 450.5 202.679 450.5 c 0,11,12
 168.937 450.5 168.937 450.5 143.309 430.984 c 128,-1,13
 117.68 411.468 117.68 411.468 103.429 379.019 c 128,-1,14
 89.1777 346.569 89.1777 346.569 82 311.238 c 128,-1,15
 74.8232 275.908 74.8232 275.908 73.835 237.75 c 0,16,17
 74.8232 199.592 74.8232 199.592 82 164.262 c 128,-1,18
 89.1777 128.931 89.1777 128.931 103.429 96.4814 c 128,-1,19
 117.68 64.0322 117.68 64.0322 143.309 44.5156 c 128,-1,20
 168.937 25 168.937 25 202.679 25 c 0,21,22
 246.042 25 246.042 25 272.522 55.6875 c 1,23,24
 276.074 61.6445 276.074 61.6445 284.21 62.5312 c 0,25,26
 289.762 62.5312 289.762 62.5312 293.688 58.6162 c 128,-1,27
 297.615 54.7012 297.615 54.7012 297.615 49.1562 c 0,28,29
 297.615 43.1211 297.615 43.1211 293.022 39.0938 c 1,30,31
 263.611 -1.125 263.611 -1.125 203.585 -1.125 c 0,32,33
 133.896 -1.125 133.896 -1.125 88.6309 59.1318 c 128,-1,34
 43.3652 119.389 43.3652 119.389 43.3652 238.688 c 0,35,36
 44.3965 278.799 44.3965 278.799 48.8857 311.285 c 128,-1,37
 53.375 343.771 53.375 343.771 64.4658 375.595 c 128,-1,38
 75.5566 407.42 75.5566 407.42 92.833 428.84 c 128,-1,39
 110.108 450.261 110.108 450.261 138.297 463.441 c 128,-1,40
 166.483 476.625 166.483 476.625 203.585 476.625 c 0,0,1
EndSplineSet
KernsSLIFO: 75 -46 0 0 15 -82 0 0 14 -210 0 0 13 -386 0 0
EndChar
StartChar: d
Encoding: 100 100 69
Width: 392
GlyphClass: 2
Flags: W
Fore
201.376 -4.19043 m 1,0,-1
 201.376 -4.19043 l 1,1,2
 111.47 -4.19043 111.47 -4.19043 76.8447 48.5771 c 128,-1,3
 42.2197 101.345 42.2197 101.345 42.2188 232.122 c 0,4,5
 42.2188 356.063 42.2188 356.063 78.5537 414.375 c 128,-1,6
 114.89 472.685 114.89 472.685 201.376 472.685 c 0,7,8
 276.016 472.685 276.016 472.685 317.062 422.642 c 1,9,-1
 317.062 643.935 l 2,10,11
 317.062 649.479 317.062 649.479 320.991 653.395 c 128,-1,12
 324.919 657.31 324.919 657.31 330.469 657.31 c 128,-1,13
 336.017 657.31 336.017 657.31 339.931 653.396 c 128,-1,14
 343.845 649.481 343.845 649.481 343.844 643.935 c 2,15,-1
 345.5 234.372 l 2,16,17
 345.5 106.551 345.5 106.551 311.505 51.1807 c 128,-1,18
 277.511 -4.19043 277.511 -4.19043 201.376 -4.19043 c 1,0,-1
202.126 23.0908 m 0,19,20
 266.074 23.0908 266.074 23.0908 291.131 78.0068 c 128,-1,21
 316.188 132.923 316.188 132.923 316.188 268.15 c 0,22,23
 316.188 369.621 316.188 369.621 293.854 407.513 c 128,-1,24
 271.521 445.403 271.521 445.403 202.126 445.403 c 0,25,26
 129.025 445.403 129.025 445.403 99.2627 391.067 c 128,-1,27
 69.501 336.732 69.501 336.732 69.5 234.247 c 0,28,29
 69.5 115.237 69.5 115.237 97.9463 69.1641 c 128,-1,30
 126.394 23.0908 126.394 23.0908 202.126 23.0908 c 0,19,20
EndSplineSet
KernsSLIFO: 75 -52 0 0 15 -112 0 0 13 -394 0 0
EndChar
StartChar: e
Encoding: 101 101 70
Width: 390
GlyphClass: 2
Flags: W
Fore
202.219 479.562 m 0,0,1
 343.852 479.562 343.852 479.562 342.406 240.312 c 0,2,3
 342.407 234.762 342.407 234.762 338.492 230.834 c 128,-1,4
 334.576 226.906 334.576 226.906 329.031 226.906 c 2,5,-1
 328.156 226.812 l 1,6,-1
 72.2812 226.812 l 1,7,8
 72.2812 183.884 72.2812 183.884 88.4717 139.172 c 128,-1,9
 104.662 94.46 104.662 94.46 139.332 60.8701 c 128,-1,10
 174.002 27.2812 174.002 27.2812 218.062 27.2812 c 0,11,12
 236.229 27.2812 236.229 27.2812 249.998 30.0381 c 128,-1,13
 263.767 32.7949 263.767 32.7949 272.925 37.8291 c 128,-1,14
 282.084 42.8633 282.084 42.8633 289.799 49.9355 c 128,-1,15
 297.515 57.0068 297.515 57.0068 303.578 65.6377 c 2,16,-1
 317.219 84.2188 l 2,17,18
 326.115 96.3125 326.115 96.3125 332.562 96.3125 c 0,19,20
 338.106 96.3125 338.106 96.3125 342.021 92.3848 c 128,-1,21
 345.938 88.457 345.938 88.457 345.938 82.9062 c 0,22,23
 345.541 79.3164 345.541 79.3164 340.906 71.125 c 0,24,25
 335.599 64.1689 335.599 64.1689 331.065 55.2354 c 128,-1,26
 326.532 46.3018 326.532 46.3018 316.312 36.5938 c 128,-1,27
 306.091 26.8848 306.091 26.8848 293.988 18.8086 c 128,-1,28
 281.886 10.7324 281.886 10.7324 261.437 5.49121 c 128,-1,29
 240.987 0.25 240.987 0.25 216.001 0.25 c 0,30,31
 140.126 0.25 140.126 0.25 91.0625 67.2988 c 128,-1,32
 42.001 134.347 42.001 134.347 42.001 241.75 c 0,33,34
 42.001 360.864 42.001 360.864 87.1641 420.213 c 128,-1,35
 132.326 479.562 132.326 479.562 202.219 479.562 c 0,0,1
201.312 453.438 m 0,36,37
 147.198 453.438 147.198 453.438 109.74 400.035 c 128,-1,38
 72.2812 346.632 72.2812 346.632 72.2812 254.688 c 1,39,-1
 318 254.688 l 1,40,41
 318 349.357 318 349.357 285.732 401.396 c 128,-1,42
 253.466 453.438 253.466 453.438 201.312 453.438 c 0,36,37
EndSplineSet
KernsSLIFO: 75 -52 0 0 15 -86 0 0 13 -390 0 0
EndChar
StartChar: f
Encoding: 102 102 71
Width: 310
GlyphClass: 2
Flags: W
Fore
192.088 662.406 m 0,0,1
 239.349 660.036 239.349 660.036 263.806 636.094 c 1,2,3
 270.838 632.273 270.838 632.273 270.838 624.312 c 0,4,5
 270.838 618.765 270.838 618.765 266.908 614.836 c 128,-1,6
 262.979 610.906 262.979 610.906 257.431 610.906 c 0,7,8
 249.765 611.678 249.765 611.678 246.244 616.938 c 0,9,10
 231.679 635.836 231.679 635.836 192.212 636.906 c 0,11,12
 155.532 636.906 155.532 636.906 144.686 609.98 c 128,-1,13
 133.839 583.055 133.839 583.055 133.838 506.656 c 2,14,-1
 133.838 453.469 l 1,15,-1
 261.931 453.469 l 2,16,17
 267.475 453.469 267.475 453.469 271.391 449.541 c 128,-1,18
 275.306 445.613 275.306 445.613 275.306 440.062 c 128,-1,19
 275.306 434.516 275.306 434.516 271.392 430.602 c 128,-1,20
 267.478 426.688 267.478 426.688 261.931 426.688 c 2,21,-1
 133.838 426.688 l 1,22,-1
 133.775 12.1875 l 2,23,24
 133.775 6.63672 133.775 6.63672 129.859 2.70898 c 128,-1,25
 125.944 -1.21875 125.944 -1.21875 120.4 -1.21875 c 128,-1,26
 114.853 -1.21875 114.853 -1.21875 110.924 2.70996 c 128,-1,27
 106.994 6.63965 106.994 6.63965 106.994 12.1875 c 0,28,29
 106.994 74.9443 106.994 74.9443 106.5 214.215 c 128,-1,30
 106.005 353.485 106.005 353.485 106.088 426.688 c 1,31,-1
 52.7754 426.688 l 2,32,33
 47.2246 426.688 47.2246 426.688 43.2969 430.603 c 128,-1,34
 39.3682 434.519 39.3682 434.519 39.3691 440.062 c 128,-1,35
 39.3691 445.611 39.3691 445.611 43.2979 449.54 c 128,-1,36
 47.2266 453.469 47.2266 453.469 52.7754 453.469 c 2,37,-1
 106.119 453.469 l 1,38,39
 106.196 485.956 106.196 485.956 106.306 506.656 c 0,40,41
 106.306 594.267 106.306 594.267 125.104 628.337 c 128,-1,42
 143.9 662.406 143.9 662.406 192.088 662.406 c 0,0,1
EndSplineSet
KernsSLIFO: 75 -42 0 0 15 -218 0 0 14 -118 0 0 13 -520 0 0
EndChar
StartChar: g
Encoding: 103 103 72
Width: 392
GlyphClass: 2
Flags: W
Fore
203.522 476.406 m 0,0,1
 280.002 476.406 280.002 476.406 314.824 418.399 c 128,-1,2
 349.646 360.394 349.646 360.394 349.646 238.094 c 2,3,-1
 348.303 0.78125 l 2,4,5
 348.303 -185.781 348.303 -185.781 198.178 -185.781 c 0,6,7
 141.282 -185.781 141.282 -185.781 102.716 -153.508 c 128,-1,8
 64.1494 -121.234 64.1494 -121.234 61.8965 -84.7188 c 1,9,10
 65.3516 -71.3125 65.3516 -71.3125 75.3027 -71.3125 c 0,11,12
 86.8525 -71.3125 86.8525 -71.3125 88.5527 -82.7188 c 0,13,14
 97.3125 -115.415 97.3125 -115.415 128.293 -136.957 c 128,-1,15
 159.271 -158.5 159.271 -158.5 198.928 -158.5 c 0,16,17
 242.541 -158.5 242.541 -158.5 271.449 -128.593 c 128,-1,18
 300.357 -98.6846 300.357 -98.6846 310.91 -56.5381 c 128,-1,19
 321.462 -14.3906 321.462 -14.3906 319.271 34.9062 c 1,20,21
 304.126 14.3535 304.126 14.3535 276.229 6.94238 c 128,-1,22
 248.332 -0.46875 248.332 -0.46875 203.521 -0.46875 c 0,23,24
 113.328 -0.46875 113.328 -0.46875 77.8477 52.5283 c 128,-1,25
 42.3662 105.525 42.3662 105.525 42.3662 235.845 c 0,26,27
 42.3662 359.32 42.3662 359.32 79.5762 417.863 c 128,-1,28
 116.787 476.406 116.787 476.406 203.522 476.406 c 0,0,1
204.272 449.125 m 0,29,30
 130.958 449.125 130.958 449.125 100.303 394.506 c 128,-1,31
 69.6475 339.887 69.6475 339.887 69.6475 237.969 c 0,32,33
 69.6475 119.451 69.6475 119.451 98.9453 73.1318 c 128,-1,34
 128.243 26.8125 128.243 26.8125 204.272 26.8125 c 0,35,36
 246.74 26.8125 246.74 26.8125 270.335 38.1826 c 128,-1,37
 293.93 49.5518 293.93 49.5518 306.882 82.75 c 128,-1,38
 319.834 115.947 319.834 115.947 319.834 177.531 c 2,39,-1
 320.053 259.812 l 2,40,41
 317.418 356.334 317.418 356.334 289.533 402.729 c 128,-1,42
 261.647 449.125 261.647 449.125 204.272 449.125 c 0,29,30
EndSplineSet
KernsSLIFO: 75 62 0 0 15 -88 0 0 13 -392 0 0
EndChar
StartChar: h
Encoding: 104 104 73
Width: 398
GlyphClass: 2
Flags: W
Fore
65.375 659.25 m 128,-1,1
 70.9229 659.25 70.9229 659.25 74.8516 655.32 c 128,-1,2
 78.7803 651.392 78.7803 651.392 78.7803 645.844 c 2,3,-1
 78.7803 406.938 l 1,4,5
 114.688 466.312 114.688 466.312 197.155 466.312 c 0,6,7
 283.181 466.312 283.181 466.312 319.745 421.124 c 128,-1,8
 356.312 375.935 356.312 375.935 356.312 279.75 c 2,9,-1
 355.53 13.4688 l 2,10,11
 355.53 7.92188 355.53 7.92188 351.602 3.99219 c 128,-1,12
 347.671 0.0625 347.671 0.0625 342.125 0.0625 c 128,-1,13
 336.577 0.0625 336.577 0.0625 332.647 3.99219 c 128,-1,14
 328.719 7.9209 328.719 7.9209 328.72 13.4688 c 2,15,-1
 328.875 146.609 l 2,16,17
 329.031 279.75 329.031 279.75 329.03 279.75 c 1,18,19
 329.03 363.466 329.03 363.466 296.194 401.248 c 128,-1,20
 263.359 439.031 263.359 439.031 196.405 439.031 c 0,21,22
 144.916 439.031 144.916 439.031 112.614 397.989 c 128,-1,23
 80.3115 356.947 80.3115 356.947 80.3115 279.75 c 2,24,-1
 79.2188 13.4688 l 2,25,26
 79.2178 7.92188 79.2178 7.92188 75.2881 3.99219 c 128,-1,27
 71.3584 0.0625 71.3584 0.0625 65.8115 0.0625 c 0,28,29
 54.6318 0.0625 54.6318 0.0625 52.625 11.0625 c 0,30,31
 52 13.0098 52 13.0098 52 15.1562 c 2,32,-1
 52 92.1562 l 2,33,34
 51.0312 279.75 51.0312 279.75 51.0303 279.75 c 1,35,36
 51.0303 295.032 51.0303 295.032 52 308.97 c 2,37,-1
 52 645.845 l 2,38,39
 52 651.396 52 651.396 55.915 655.322 c 128,-1,0
 59.8311 659.25 59.8311 659.25 65.375 659.25 c 128,-1,1
EndSplineSet
KernsSLIFO: 75 -50 0 0 15 -84 0 0 13 -388 0 0
EndChar
StartChar: i
Encoding: 105 105 74
Width: 124
GlyphClass: 2
Flags: W
Fore
66.9785 475.612 m 128,-1,1
 72.5273 475.612 72.5273 475.612 76.457 471.683 c 128,-1,2
 80.3867 467.753 80.3867 467.753 80.3867 462.206 c 2,3,-1
 80.3867 12.9561 l 2,4,5
 80.3867 7.41211 80.3867 7.41211 76.458 3.49609 c 128,-1,6
 72.5303 -0.418945 72.5303 -0.418945 66.9785 -0.418945 c 128,-1,7
 61.4326 -0.418945 61.4326 -0.418945 57.5186 3.49512 c 128,-1,8
 53.6035 7.40918 53.6035 7.40918 53.6035 12.9561 c 2,9,-1
 53.6035 462.206 l 2,10,11
 53.6035 467.756 53.6035 467.756 57.5215 471.685 c 128,-1,0
 61.4355 475.612 61.4355 475.612 66.9785 475.612 c 128,-1,1
79.8506 655.13 m 128,-1,13
 79.8506 649.554 79.8506 649.554 75.9238 645.627 c 128,-1,14
 71.9971 641.701 71.9971 641.701 66.4502 641.701 c 128,-1,15
 60.9033 641.701 60.9033 641.701 56.9766 645.627 c 128,-1,16
 53.0498 649.554 53.0498 649.554 53.0498 655.101 c 2,17,-1
 53.0498 655.172 l 2,18,19
 53.0498 660.719 53.0498 660.719 56.9766 664.646 c 128,-1,20
 60.9033 668.572 60.9033 668.572 66.4502 668.572 c 128,-1,21
 71.9971 668.572 71.9971 668.572 75.9238 664.646 c 128,-1,12
 79.8506 660.719 79.8506 660.719 79.8506 655.13 c 128,-1,13
EndSplineSet
KernsSLIFO: 75 -52 0 0 15 -88 0 0 13 -392 0 0
EndChar
StartChar: j
Encoding: 106 106 75
Width: 190
GlyphClass: 2
Flags: W
Fore
117.265 475.625 m 128,-1,1
 122.812 475.625 122.812 475.625 126.742 471.695 c 128,-1,2
 130.672 467.767 130.672 467.767 130.672 462.219 c 0,3,4
 130.672 412.377 130.672 412.377 131.265 239.161 c 128,-1,5
 131.858 65.9453 131.858 65.9453 131.358 -28.25 c 0,6,7
 131.358 -115.862 131.358 -115.862 112.562 -149.931 c 128,-1,8
 93.7646 -184 93.7646 -184 45.5771 -184 c 0,9,10
 -1.68555 -181.629 -1.68555 -181.629 -26.1416 -157.688 c 1,11,12
 -33.1729 -153.867 -33.1729 -153.867 -33.1729 -145.906 c 0,13,14
 -33.1729 -140.359 -33.1729 -140.359 -29.2432 -136.43 c 128,-1,15
 -25.3125 -132.5 -25.3125 -132.5 -19.7666 -132.5 c 0,16,17
 -12.6338 -132.5 -12.6338 -132.5 -8.6416 -138.406 c 2,18,-1
 -8.57812 -138.531 l 1,19,20
 5.98828 -157.432 5.98828 -157.432 45.4521 -158.5 c 0,21,22
 82.1328 -158.5 82.1328 -158.5 92.9795 -131.574 c 128,-1,23
 103.826 -104.649 103.826 -104.649 103.827 -28.25 c 2,24,-1
 103.89 462.219 l 2,25,26
 103.89 467.769 103.89 467.769 107.806 471.697 c 128,-1,0
 111.721 475.625 111.721 475.625 117.265 475.625 c 128,-1,1
130.127 655.13 m 128,-1,28
 130.127 649.553 130.127 649.553 126.201 645.627 c 128,-1,29
 122.275 641.701 122.275 641.701 116.728 641.701 c 128,-1,30
 111.179 641.701 111.179 641.701 107.253 645.627 c 128,-1,31
 103.327 649.553 103.327 649.553 103.327 655.101 c 2,32,-1
 103.327 655.172 l 2,33,34
 103.327 660.72 103.327 660.72 107.253 664.646 c 128,-1,35
 111.18 668.572 111.18 668.572 116.728 668.572 c 128,-1,36
 122.275 668.572 122.275 668.572 126.201 664.646 c 128,-1,27
 130.127 660.72 130.127 660.72 130.127 655.13 c 128,-1,28
EndSplineSet
KernsSLIFO: 75 64 0 0 28 -40 0 0 15 -100 0 0 13 -404 0 0
EndChar
StartChar: k
Encoding: 107 107 76
Width: 356
GlyphClass: 2
Flags: W
Fore
51.0947 669.25 m 128,-1,1
 56.6426 669.25 56.6426 669.25 60.5713 665.32 c 128,-1,2
 64.5 661.392 64.5 661.392 64.5 655.844 c 2,3,-1
 64.5 269.031 l 1,4,-1
 303.375 493.812 l 2,5,6
 313.123 502.969 313.123 502.969 322.312 493.188 c 128,-1,7
 331.47 483.438 331.47 483.438 321.718 474.281 c 2,8,-1
 132 295.781 l 1,9,-1
 342.656 22.2812 l 2,10,11
 350.764 11.6016 350.764 11.6016 340.095 3.5 c 128,-1,12
 329.416 -4.60449 329.416 -4.60449 321.312 6.0625 c 2,13,-1
 112.406 277.312 l 1,14,-1
 64.5 232.25 l 1,15,-1
 64.5 11.1562 l 2,16,17
 64.5 5.6123 64.5 5.6123 60.5723 1.69629 c 128,-1,18
 56.6445 -2.21875 56.6445 -2.21875 51.0947 -2.21875 c 128,-1,19
 45.5459 -2.21875 45.5459 -2.21875 41.6318 1.69531 c 128,-1,20
 37.7178 5.6084 37.7178 5.6084 37.7178 11.1562 c 2,21,-1
 37.7178 655.845 l 2,22,23
 37.7178 661.396 37.7178 661.396 41.6328 665.322 c 128,-1,0
 45.5488 669.25 45.5488 669.25 51.0947 669.25 c 128,-1,1
EndSplineSet
KernsSLIFO: 15 -74 0 0 14 -72 0 0 13 -378 0 0
EndChar
StartChar: l
Encoding: 108 108 77
Width: 122
GlyphClass: 2
Flags: W
Fore
65.5215 653.243 m 128,-1,1
 71.0693 653.243 71.0693 653.243 74.999 649.312 c 128,-1,2
 78.9287 645.385 78.9287 645.385 78.9287 639.837 c 2,3,-1
 78.9287 15.168 l 2,4,5
 78.9287 9.62305 78.9287 9.62305 75.001 5.70801 c 128,-1,6
 71.0723 1.79297 71.0723 1.79297 65.5215 1.79297 c 128,-1,7
 59.9746 1.79297 59.9746 1.79297 56.0605 5.70703 c 128,-1,8
 52.1465 9.62012 52.1465 9.62012 52.1465 15.168 c 2,9,-1
 52.1465 639.837 l 2,10,11
 52.1465 645.387 52.1465 645.387 56.0615 649.315 c 128,-1,0
 59.9775 653.243 59.9775 653.243 65.5215 653.243 c 128,-1,1
EndSplineSet
KernsSLIFO: 75 -52 0 0 15 -88 0 0 13 -392 0 0
EndChar
StartChar: m
Encoding: 109 109 78
Width: 548
GlyphClass: 2
Flags: W
Fore
160.125 478.312 m 0,0,1
 253.332 478.312 253.332 478.312 281.719 404.688 c 1,2,3
 310.106 478.312 310.106 478.312 403.312 478.312 c 0,4,5
 431.142 478.312 431.142 478.312 451.485 471.963 c 128,-1,6
 471.83 465.612 471.83 465.612 490.126 449.01 c 128,-1,7
 508.422 432.408 508.422 432.408 517.931 398.944 c 128,-1,8
 527.438 365.48 527.438 365.48 527.438 315.75 c 2,9,-1
 526.063 13.4688 l 2,10,11
 526.062 7.9209 526.062 7.9209 522.134 3.99219 c 128,-1,12
 518.204 0.0625 518.204 0.0625 512.656 0.0625 c 128,-1,13
 507.11 0.0625 507.11 0.0625 503.181 3.99219 c 128,-1,14
 499.251 7.92188 499.251 7.92188 499.25 13.4688 c 2,15,-1
 498.156 315.75 l 2,16,17
 498.157 389.213 498.157 389.213 471.368 420.122 c 128,-1,18
 444.578 451.031 444.578 451.031 404.063 451.031 c 0,19,20
 346.338 451.031 346.338 451.031 320.888 418.669 c 128,-1,21
 295.438 386.308 295.438 386.308 295.438 315.75 c 2,22,-1
 295.594 238.609 l 1,23,-1
 295.75 161.469 l 2,24,25
 295.751 155.921 295.751 155.921 291.821 151.992 c 128,-1,26
 287.892 148.062 287.892 148.062 282.344 148.062 c 0,27,28
 281.746 148.093 281.746 148.093 281.719 148.094 c 128,-1,29
 281.689 148.093 281.689 148.093 281.454 148.077 c 0,30,31
 275.548 148.062 275.548 148.062 271.618 151.992 c 128,-1,32
 267.688 155.922 267.688 155.922 267.688 161.469 c 2,33,-1
 268 315.75 l 2,34,35
 268 386.308 268 386.308 242.55 418.669 c 128,-1,36
 217.101 451.031 217.101 451.031 159.375 451.031 c 0,37,38
 118.86 451.031 118.86 451.031 92.0713 420.122 c 128,-1,39
 65.2822 389.213 65.2822 389.213 65.2822 315.75 c 2,40,-1
 64.1885 13.4688 l 2,41,42
 64.1885 7.9209 64.1885 7.9209 60.2588 3.99219 c 128,-1,43
 56.3291 0.0625 56.3291 0.0625 50.7822 0.0625 c 128,-1,44
 45.2334 0.0625 45.2334 0.0625 41.3037 3.99121 c 128,-1,45
 37.375 7.9209 37.375 7.9209 37.375 13.4688 c 2,46,-1
 36 315.75 l 2,47,48
 36 365.479 36 365.479 45.5088 398.944 c 128,-1,49
 55.0176 432.408 55.0176 432.408 73.3135 449.011 c 128,-1,50
 91.6084 465.612 91.6084 465.612 111.952 471.963 c 128,-1,51
 132.296 478.312 132.296 478.312 160.125 478.312 c 0,0,1
EndSplineSet
KernsSLIFO: 75 -52 0 0 15 -86 0 0 13 -390 0 0
EndChar
StartChar: n
Encoding: 110 110 79
Width: 386
GlyphClass: 2
Flags: W
Fore
189.843 466.312 m 0,0,1
 275.616 466.312 275.616 466.312 311.309 421.309 c 128,-1,2
 347 376.304 347 376.304 347 279.75 c 2,3,-1
 346.218 13.4688 l 2,4,5
 346.218 7.9209 346.218 7.9209 342.289 3.99219 c 128,-1,6
 338.36 0.0625 338.36 0.0625 332.812 0.0625 c 128,-1,7
 327.266 0.0625 327.266 0.0625 323.336 3.99219 c 128,-1,8
 319.406 7.92188 319.406 7.92188 319.406 13.4688 c 2,9,-1
 319.718 279.75 l 2,10,11
 319.718 363.756 319.718 363.756 287.742 401.397 c 128,-1,12
 255.768 439.039 255.768 439.039 189.093 439.039 c 0,13,14
 138.108 439.039 138.108 439.039 107.555 398.257 c 128,-1,15
 77 357.475 77 357.475 77 279.75 c 2,16,-1
 75.9062 13.4688 l 2,17,18
 75.9053 7.9209 75.9053 7.9209 71.9766 3.99219 c 128,-1,19
 68.0469 0.0625 68.0469 0.0625 62.5 0.0625 c 128,-1,20
 56.9521 0.0625 56.9521 0.0625 53.0225 3.99219 c 128,-1,21
 49.0928 7.9209 49.0928 7.9209 49.0928 13.4688 c 2,22,-1
 47.7178 279.75 l 2,23,24
 47.7178 378.707 47.7178 378.707 84.5264 422.51 c 128,-1,25
 121.335 466.312 121.335 466.312 189.843 466.312 c 0,0,1
EndSplineSet
KernsSLIFO: 75 -50 0 0 15 -84 0 0 13 -388 0 0
EndChar
StartChar: o
Encoding: 111 111 80
Width: 402
GlyphClass: 2
Flags: W
Fore
197.92 474.312 m 0,0,1
 289.262 474.312 289.262 474.312 328.169 420.481 c 0,2,3
 366.076 366.649 366.076 366.649 366.076 238 c 0,4,5
 366.076 114.759 366.076 114.759 326.365 56.8281 c 0,6,7
 285.655 -2.5625 285.655 -2.5625 197.92 -2.5625 c 0,8,9
 43.7949 -2.5625 43.7949 -2.5625 43.7949 235.749 c 0,10,11
 43.7949 361.596 43.7949 361.596 82.0869 417.953 c 128,-1,12
 120.379 474.312 120.379 474.312 197.92 474.312 c 0,0,1
196.17 447.031 m 0,13,14
 130.824 447.031 130.824 447.031 101.466 398.373 c 128,-1,15
 72.1074 349.714 72.1074 349.714 72.1074 235.875 c 0,16,17
 72.1074 24.7188 72.1074 24.7188 196.17 24.7188 c 0,18,19
 338.795 24.7188 338.795 24.7188 338.795 235.875 c 0,20,21
 338.795 352.64 338.795 352.64 306.092 399.836 c 128,-1,22
 273.388 447.031 273.388 447.031 196.17 447.031 c 0,13,14
EndSplineSet
KernsSLIFO: 75 -46 0 0 15 -106 0 0 13 -388 0 0
EndChar
StartChar: p
Encoding: 112 112 81
Width: 388
GlyphClass: 2
Flags: W
Fore
191.75 476.125 m 0,0,1
 281.657 476.125 281.657 476.125 316.282 423.357 c 128,-1,2
 350.906 370.59 350.906 370.59 350.907 239.812 c 0,3,4
 350.907 115.871 350.907 115.871 314.571 57.5605 c 128,-1,5
 278.235 -0.749023 278.235 -0.749023 191.75 -0.749023 c 0,6,7
 117.11 -0.749023 117.11 -0.749023 76.0635 49.2939 c 1,8,-1
 76.0635 -172 l 2,9,10
 76.0635 -177.544 76.0635 -177.544 72.1348 -181.46 c 128,-1,11
 68.2061 -185.375 68.2061 -185.375 62.6562 -185.375 c 128,-1,12
 57.1104 -185.375 57.1104 -185.375 53.1963 -181.461 c 128,-1,13
 49.2803 -177.547 49.2803 -177.547 49.2812 -172 c 2,14,-1
 47.626 237.562 l 2,15,16
 47.626 365.386 47.626 365.386 81.6191 420.756 c 128,-1,17
 115.614 476.125 115.614 476.125 191.75 476.125 c 0,0,1
191 448.844 m 0,18,19
 127.052 448.844 127.052 448.844 101.995 393.928 c 128,-1,20
 76.9385 339.012 76.9385 339.012 76.9385 203.784 c 0,21,22
 76.9385 102.313 76.9385 102.313 99.2715 64.4219 c 128,-1,23
 121.604 26.5312 121.604 26.5312 191 26.5312 c 0,24,25
 264.101 26.5312 264.101 26.5312 293.862 80.8672 c 128,-1,26
 323.625 135.202 323.625 135.202 323.626 237.688 c 0,27,28
 323.626 356.696 323.626 356.696 295.179 402.771 c 128,-1,29
 266.731 448.845 266.731 448.845 191 448.844 c 0,18,19
EndSplineSet
KernsSLIFO: 75 -46 0 0 15 -108 0 0 13 -388 0 0
EndChar
StartChar: q
Encoding: 113 113 82
Width: 412
GlyphClass: 2
Flags: W
Fore
201.157 476.125 m 0,0,1
 277.292 476.125 277.292 476.125 311.287 420.756 c 128,-1,2
 345.281 365.386 345.281 365.386 345.281 237.562 c 2,3,-1
 343.625 -172 l 2,4,5
 343.626 -177.547 343.626 -177.547 339.711 -181.461 c 128,-1,6
 335.797 -185.375 335.797 -185.375 330.25 -185.375 c 128,-1,7
 324.7 -185.375 324.7 -185.375 320.771 -181.46 c 128,-1,8
 316.844 -177.544 316.844 -177.544 316.844 -172 c 2,9,-1
 316.844 49.2939 l 1,10,11
 275.797 -0.749023 275.797 -0.749023 201.157 -0.749023 c 0,12,13
 114.672 -0.749023 114.672 -0.749023 78.3359 57.5605 c 128,-1,14
 42 115.871 42 115.871 42 239.812 c 0,15,16
 42.001 370.59 42.001 370.59 76.625 423.357 c 128,-1,17
 111.25 476.125 111.25 476.125 201.157 476.125 c 0,0,1
201.907 448.844 m 0,18,19
 126.176 448.845 126.176 448.845 97.7285 402.771 c 128,-1,20
 69.2812 356.696 69.2812 356.696 69.2812 237.688 c 0,21,22
 69.2822 135.202 69.2822 135.202 99.0449 80.8672 c 128,-1,23
 128.807 26.5312 128.807 26.5312 201.907 26.5312 c 0,24,25
 271.303 26.5312 271.303 26.5312 293.636 64.4219 c 128,-1,26
 315.969 102.313 315.969 102.313 315.969 203.784 c 0,27,28
 315.969 339.012 315.969 339.012 290.912 393.928 c 128,-1,29
 265.855 448.844 265.855 448.844 201.907 448.844 c 0,18,19
EndSplineSet
KernsSLIFO: 75 66 0 0 28 -50 0 0 27 -40 0 0 15 -108 0 0 13 -412 0 0
EndChar
StartChar: r
Encoding: 114 114 83
Width: 370
GlyphClass: 2
Flags: W
Fore
196.845 476.312 m 0,0,1
 252.204 476.312 252.204 476.312 291.448 433.495 c 128,-1,2
 330.692 390.678 330.692 390.678 333.125 351.25 c 1,3,4
 329.671 337.844 329.671 337.844 319.72 337.844 c 0,5,6
 308.172 337.844 308.172 337.844 306.47 349.25 c 0,7,8
 296.784 385.397 296.784 385.397 265.076 417.215 c 128,-1,9
 233.367 449.031 233.367 449.031 196.095 449.031 c 0,10,11
 144.1 449.031 144.1 449.031 110.05 407.751 c 128,-1,12
 76 366.471 76 366.471 76 289.75 c 2,13,-1
 74.9072 13.4688 l 2,14,15
 74.9053 7.9209 74.9053 7.9209 70.9766 3.99219 c 128,-1,16
 67.0469 0.0625 67.0469 0.0625 61.5 0.0625 c 128,-1,17
 55.9531 0.0625 55.9531 0.0625 52.0244 3.99219 c 128,-1,18
 48.0957 7.92188 48.0957 7.92188 48.0947 13.4688 c 0,19,20
 48.0947 289.75 48.0947 289.75 46.7197 289.75 c 1,21,22
 46.7197 476.312 46.7197 476.312 196.845 476.312 c 0,0,1
EndSplineSet
KernsSLIFO: 75 -42 0 0 15 -338 0 0 13 -640 0 0
EndChar
StartChar: s
Encoding: 115 115 84
Width: 334
GlyphClass: 2
Flags: W
HStem: 0.875 26.125<118.477 239.314> 226.875 27.75<113.682 256.903> 450.5 26.125<81.3372 246.305>
VStem: 18 30.4688<306.33 421.481> 292.625 28.469<77.1435 187.036>
Fore
170.219 476.625 m 0,0,1
 274.312 476.625 274.312 476.625 304.657 414.406 c 1,2,3
 309.25 410.377 309.25 410.377 309.25 404.344 c 0,4,5
 309.25 398.799 309.25 398.799 305.323 394.884 c 128,-1,6
 301.396 390.969 301.396 390.969 295.844 390.969 c 0,7,8
 287.709 391.855 287.709 391.855 284.157 397.812 c 0,9,10
 274.838 418.297 274.838 418.297 251.688 434.398 c 128,-1,11
 228.537 450.5 228.537 450.5 169.312 450.5 c 0,12,13
 101.639 450.5 101.639 450.5 75.0537 426.561 c 128,-1,14
 48.4688 402.62 48.4688 402.62 48.4688 339.75 c 0,15,16
 48.4688 300.549 48.4688 300.549 72.8623 277.587 c 128,-1,17
 97.2559 254.625 97.2559 254.625 160.875 254.625 c 0,18,19
 242.331 254.625 242.331 254.625 281.712 227.619 c 128,-1,20
 321.094 200.613 321.094 200.613 321.094 134.812 c 0,21,22
 321.094 91.7031 321.094 91.7031 312.153 65.0029 c 128,-1,23
 303.214 38.3018 303.214 38.3018 281.737 24.2666 c 128,-1,24
 260.262 10.2314 260.262 10.2314 233.011 5.55273 c 128,-1,25
 205.761 0.875 205.761 0.875 160.875 0.875 c 0,26,27
 117.601 0.875 117.601 0.875 76.8936 22.999 c 128,-1,28
 36.1865 45.123 36.1865 45.123 29.4375 75.0938 c 1,29,30
 24.8438 79.1221 24.8438 79.1221 24.8438 85.1562 c 0,31,32
 24.8438 90.7012 24.8438 90.7012 28.7705 94.6162 c 128,-1,33
 32.6982 98.5312 32.6982 98.5312 38.25 98.5312 c 0,34,35
 46.3848 97.6436 46.3848 97.6436 49.9375 91.6875 c 1,36,37
 59.6641 62.0361 59.6641 62.0361 94.0674 44.5176 c 128,-1,38
 128.47 27 128.47 27 161.781 27 c 0,39,40
 236.312 27 236.312 27 263.589 47.4023 c 0,41,42
 292.625 69.1209 292.625 69.1209 292.625 135.75 c 0,43,44
 292.625 175.201 292.625 175.201 266.245 200.501 c 0,45,46
 238.745 226.875 238.745 226.875 178.219 226.875 c 0,47,48
 148.197 226.875 148.197 226.875 127.94 228.741 c 128,-1,49
 107.684 230.607 107.684 230.607 85.0381 237.857 c 128,-1,50
 62.3926 245.108 62.3926 245.108 49.0635 258.227 c 128,-1,51
 35.7344 271.345 35.7344 271.345 26.8672 295.17 c 128,-1,52
 18 318.994 18 318.994 18 352.688 c 0,53,54
 18 416.587 18 416.587 53.8877 446.605 c 128,-1,55
 89.7744 476.625 89.7744 476.625 170.219 476.625 c 0,0,1
EndSplineSet
KernsSLIFO: 75 -48 0 0 15 -88 0 0 13 -386 0 0
EndChar
StartChar: t
Encoding: 116 116 85
Width: 266
GlyphClass: 2
Flags: W
Fore
188.25 -1.21875 m 1,0,1
 140.062 -1.21875 140.062 -1.21875 121.265 32.8506 c 128,-1,2
 102.468 66.9209 102.468 66.9209 102.468 154.53 c 2,3,-1
 102.281 442.78 l 1,4,-1
 27.8076 442.78 l 2,5,6
 22.2598 442.78 22.2598 442.78 18.3311 446.711 c 128,-1,7
 14.4023 450.64 14.4023 450.64 14.4023 456.188 c 128,-1,8
 14.4014 461.73 14.4014 461.73 18.3291 465.646 c 128,-1,9
 22.2578 469.562 22.2578 469.562 27.8076 469.562 c 2,10,-1
 102.25 469.562 l 1,11,12
 102.171 539.42 102.171 539.42 102.663 560.499 c 128,-1,13
 103.156 581.579 103.156 581.579 103.156 649 c 0,14,15
 103.156 654.548 103.156 654.548 107.085 658.477 c 128,-1,16
 111.014 662.405 111.014 662.405 116.562 662.405 c 128,-1,17
 122.105 662.405 122.105 662.405 126.021 658.479 c 128,-1,18
 129.937 654.551 129.937 654.551 129.937 649 c 2,19,-1
 130 469.562 l 1,20,-1
 232.436 469.562 l 2,21,22
 237.981 469.562 237.981 469.562 241.896 465.647 c 128,-1,23
 245.811 461.733 245.811 461.733 245.811 456.188 c 128,-1,24
 245.811 450.638 245.811 450.638 241.896 446.709 c 128,-1,25
 237.979 442.78 237.979 442.78 232.436 442.78 c 2,26,-1
 130 442.78 l 1,27,-1
 130 154.53 l 2,28,29
 130.001 78.1328 130.001 78.1328 140.848 51.207 c 128,-1,30
 151.694 24.2812 151.694 24.2812 188.374 24.2812 c 0,31,32
 227.839 25.3496 227.839 25.3496 242.406 44.25 c 0,33,34
 245.927 49.5098 245.927 49.5098 253.593 50.2812 c 0,35,36
 259.141 50.2812 259.141 50.2812 263.07 46.3516 c 128,-1,37
 267 42.4229 267 42.4229 267 36.875 c 0,38,39
 267 28.915 267 28.915 259.968 25.0938 c 1,40,41
 235.511 1.15137 235.511 1.15137 188.25 -1.21875 c 1,42,-1
 188.25 -1.21875 l 1,0,1
EndSplineSet
KernsSLIFO: 75 -40 0 0 15 -76 0 0 14 -116 0 0 13 -380 0 0
EndChar
StartChar: u
Encoding: 117 117 86
Width: 396
GlyphClass: 2
Flags: W
Fore
205.899 2.58496 m 1,0,1
 120.126 2.58496 120.126 2.58496 84.4336 47.5889 c 128,-1,2
 48.7422 92.5938 48.7422 92.5938 48.7422 189.146 c 2,3,-1
 49.5244 455.429 l 2,4,5
 49.5244 460.977 49.5244 460.977 53.4531 464.905 c 128,-1,6
 57.3818 468.835 57.3818 468.835 62.9297 468.835 c 128,-1,7
 68.4766 468.835 68.4766 468.835 72.4062 464.905 c 128,-1,8
 76.3359 460.976 76.3359 460.976 76.3359 455.429 c 2,9,-1
 76.0244 189.146 l 2,10,11
 76.0244 105.142 76.0244 105.142 108 67.5 c 128,-1,12
 139.976 29.8584 139.976 29.8584 206.649 29.8584 c 0,13,14
 257.635 29.8584 257.635 29.8584 288.188 70.6406 c 128,-1,15
 318.742 111.423 318.742 111.423 318.742 189.146 c 2,16,-1
 319.836 455.429 l 2,17,18
 319.838 460.977 319.838 460.977 323.767 464.904 c 128,-1,19
 327.695 468.834 327.695 468.834 333.242 468.834 c 128,-1,20
 338.79 468.834 338.79 468.834 342.721 464.904 c 128,-1,21
 346.649 460.977 346.649 460.977 346.649 455.429 c 2,22,-1
 348.024 189.146 l 2,23,24
 348.024 90.1895 348.024 90.1895 311.217 46.3877 c 128,-1,25
 274.407 2.58496 274.407 2.58496 205.899 2.58496 c 1,26,-1
 205.899 2.58496 l 1,0,1
EndSplineSet
KernsSLIFO: 75 -50 0 0 15 -108 0 0 13 -392 0 0
EndChar
StartChar: v
Encoding: 118 118 87
Width: 376
GlyphClass: 2
Flags: W
Fore
30.4336 485.156 m 128,-1,1
 35.9824 485.156 35.9824 485.156 39.9111 481.227 c 128,-1,2
 43.8418 477.298 43.8418 477.298 43.8408 471.75 c 0,3,4
 43.8408 380.594 43.8408 380.594 72 271.546 c 128,-1,5
 100.161 162.498 100.161 162.498 132.682 93.9834 c 128,-1,6
 165.202 25.4688 165.202 25.4688 181.527 25.4688 c 0,7,8
 198.178 25.4688 198.178 25.4688 230.197 96.9219 c 128,-1,9
 262.217 168.374 262.217 168.374 289.279 277.217 c 128,-1,10
 316.341 386.059 316.341 386.059 316.341 471.749 c 0,11,12
 316.341 477.298 316.341 477.298 320.27 481.227 c 128,-1,13
 324.198 485.155 324.198 485.155 329.745 485.155 c 0,14,15
 341.035 485.155 341.035 485.155 342.934 473.999 c 1,16,17
 342.966 395.895 342.966 395.895 316.977 283.011 c 128,-1,18
 290.986 170.127 290.986 170.127 252.058 84.2979 c 128,-1,19
 213.129 -1.53125 213.129 -1.53125 181.31 -1.53125 c 0,20,21
 148.404 -1.53125 148.404 -1.53125 109.021 80.9551 c 128,-1,22
 69.6367 163.44 69.6367 163.44 43.332 275.72 c 128,-1,23
 17.0273 387.998 17.0273 387.998 17.0273 471.75 c 0,24,25
 17.0283 477.298 17.0283 477.298 20.957 481.227 c 128,-1,0
 24.8857 485.156 24.8857 485.156 30.4336 485.156 c 128,-1,1
EndSplineSet
KernsSLIFO: 15 -192 0 0 13 -452 0 0
EndChar
StartChar: w
Encoding: 119 119 88
Width: 546
GlyphClass: 2
Flags: W
Fore
399.263 0.356445 m 1,0,1
 306.056 0.356445 306.056 0.356445 277.669 73.9814 c 1,2,3
 249.281 0.356445 249.281 0.356445 156.074 0.356445 c 0,4,5
 128.246 0.356445 128.246 0.356445 107.902 6.70605 c 128,-1,6
 87.5576 13.0566 87.5576 13.0566 69.2617 29.6592 c 128,-1,7
 50.9658 46.2607 50.9658 46.2607 41.457 79.7246 c 128,-1,8
 31.9492 113.188 31.9492 113.188 31.9492 162.919 c 2,9,-1
 33.3242 465.2 l 2,10,11
 33.3252 470.748 33.3252 470.748 37.2539 474.677 c 128,-1,12
 41.1836 478.606 41.1836 478.606 46.7314 478.606 c 128,-1,13
 52.2773 478.606 52.2773 478.606 56.207 474.677 c 128,-1,14
 60.1367 470.747 60.1367 470.747 60.1377 465.2 c 2,15,-1
 61.2314 162.919 l 2,16,17
 61.2305 89.4561 61.2305 89.4561 88.0195 58.5469 c 128,-1,18
 114.81 27.6377 114.81 27.6377 155.324 27.6377 c 0,19,20
 213.05 27.6377 213.05 27.6377 238.5 60 c 128,-1,21
 263.949 92.3613 263.949 92.3613 263.949 162.919 c 1,22,23
 263.95 162.919 263.95 162.919 263.794 240.061 c 2,24,-1
 263.638 317.2 l 2,25,26
 263.637 322.748 263.637 322.748 267.566 326.677 c 128,-1,27
 271.496 330.606 271.496 330.606 277.044 330.606 c 0,28,29
 277.642 330.576 277.642 330.576 277.669 330.575 c 128,-1,30
 277.698 330.576 277.698 330.576 277.934 330.592 c 0,31,32
 283.84 330.606 283.84 330.606 287.77 326.677 c 128,-1,33
 291.699 322.747 291.699 322.747 291.699 317.2 c 2,34,-1
 291.388 162.919 l 2,35,36
 291.388 92.3613 291.388 92.3613 316.838 60 c 128,-1,37
 342.287 27.6377 342.287 27.6377 400.013 27.6377 c 0,38,39
 440.527 27.6377 440.527 27.6377 467.316 58.5469 c 128,-1,40
 494.105 89.4561 494.105 89.4561 494.105 162.919 c 2,41,-1
 495.199 465.2 l 2,42,43
 495.2 470.748 495.2 470.748 499.129 474.677 c 128,-1,44
 503.059 478.606 503.059 478.606 508.605 478.606 c 128,-1,45
 514.154 478.606 514.154 478.606 518.084 474.678 c 128,-1,46
 522.013 470.748 522.013 470.748 522.013 465.2 c 2,47,-1
 523.388 162.919 l 2,48,49
 523.388 113.189 523.388 113.189 513.879 79.7246 c 128,-1,50
 504.37 46.2607 504.37 46.2607 486.074 29.6582 c 128,-1,51
 467.779 13.0566 467.779 13.0566 447.436 6.70605 c 128,-1,52
 427.092 0.356445 427.092 0.356445 399.263 0.356445 c 1,53,-1
 399.263 0.356445 l 1,0,1
EndSplineSet
KernsSLIFO: 75 -52 0 0 15 -100 0 0 13 -392 0 0
EndChar
StartChar: x
Encoding: 120 120 89
Width: 416
GlyphClass: 2
Flags: W
Fore
33.6768 479.001 m 128,-1,1
 39.1221 478.988 39.1221 478.988 42.9727 475.062 c 1,2,-1
 191.611 259.312 l 1,3,-1
 342.525 473.095 l 1,4,5
 351.823 482.564 351.823 482.564 361.12 473.095 c 128,-1,6
 370.418 463.629 370.418 463.629 361.12 454.157 c 1,7,-1
 208.517 239.72 l 1,8,-1
 361.12 25.251 l 1,9,10
 370.418 15.7793 370.418 15.7793 361.12 6.31348 c 128,-1,11
 351.823 -3.15625 351.823 -3.15625 342.525 6.31348 c 1,12,-1
 191.611 220.096 l 1,13,-1
 42.9727 4.3457 l 1,14,15
 33.6621 -5.1377 33.6621 -5.1377 24.3809 4.31445 c 128,-1,16
 15.0693 13.7998 15.0693 13.7998 24.3809 23.2832 c 1,17,-1
 175.384 239.721 l 1,18,-1
 24.3809 456.127 l 1,19,20
 15.0693 465.612 15.0693 465.612 24.3809 475.096 c 0,21,0
 28.2305 479.015 28.2305 479.015 33.6768 479.001 c 128,-1,1
EndSplineSet
KernsSLIFO: 75 -44 0 0 15 -80 0 0 14 -88 0 0 13 -384 0 0
EndChar
StartChar: y
Encoding: 121 121 90
Width: 384
GlyphClass: 2
Flags: W
Fore
63.0938 477.53 m 128,-1,1
 68.6406 477.53 68.6406 477.53 72.5693 473.602 c 128,-1,2
 76.498 469.672 76.498 469.672 76.499 464.124 c 2,3,-1
 77.5938 185.843 l 2,4,5
 77.5938 108.388 77.5938 108.388 109.021 67.4746 c 128,-1,6
 140.449 26.5615 140.449 26.5615 191.688 26.5615 c 0,7,8
 227.786 26.5615 227.786 26.5615 249.812 30.874 c 128,-1,9
 271.84 35.1865 271.84 35.1865 290.191 48.3887 c 128,-1,10
 308.543 61.5908 308.543 61.5908 316.428 87.7363 c 128,-1,11
 324.311 113.882 324.311 113.882 324.311 155.844 c 2,12,-1
 324 464.124 l 2,13,14
 324 469.673 324 469.673 327.93 473.602 c 128,-1,15
 331.859 477.53 331.859 477.53 337.405 477.53 c 128,-1,16
 342.955 477.53 342.955 477.53 346.883 473.603 c 128,-1,17
 350.811 469.674 350.811 469.674 350.811 464.124 c 2,18,-1
 351.905 53.4053 l 2,19,20
 351.905 -22.0479 351.905 -22.0479 345.967 -65.9346 c 128,-1,21
 340.025 -109.821 340.025 -109.821 322.323 -138.516 c 128,-1,22
 304.623 -167.209 304.623 -167.209 275.799 -177.184 c 128,-1,23
 246.977 -187.157 246.977 -187.157 197.78 -187.157 c 0,24,25
 140.424 -187.157 140.424 -187.157 98.9941 -165.729 c 128,-1,26
 57.5635 -144.302 57.5635 -144.302 47.499 -116.5 c 0,27,28
 44.666 -105.979 44.666 -105.979 52.5264 -99.4473 c 0,29,30
 57.5898 -95.417 57.5898 -95.417 64.3027 -97.2441 c 128,-1,31
 71.0156 -99.0713 71.0156 -99.0713 71.7617 -104.07 c 1,32,33
 85.1523 -128.393 85.1523 -128.393 121.554 -144.135 c 128,-1,34
 157.955 -159.876 157.955 -159.876 198.53 -159.876 c 0,35,36
 244.444 -159.876 244.444 -159.876 270.291 -143.3 c 128,-1,37
 296.139 -126.725 296.139 -126.725 309.428 -82.667 c 128,-1,38
 322.719 -38.6094 322.719 -38.6094 322.719 41.5615 c 1,39,40
 305.871 16.1846 305.871 16.1846 275.596 7.73242 c 128,-1,41
 245.319 -0.719727 245.319 -0.719727 192.438 -0.719727 c 0,42,43
 48.3115 -0.719727 48.3115 -0.719727 48.3115 185.844 c 2,44,-1
 49.6875 464.125 l 2,45,46
 49.6865 469.673 49.6865 469.673 53.6162 473.603 c 128,-1,0
 57.5459 477.531 57.5459 477.531 63.0938 477.53 c 128,-1,1
EndSplineSet
KernsSLIFO: 75 64 0 0 15 -92 0 0 13 -396 0 0
EndChar
StartChar: z
Encoding: 122 122 91
Width: 354
GlyphClass: 2
Flags: W
Fore
38.2188 468.594 m 2,0,-1
 338 468.719 l 1,1,2
 349.607 462.017 349.607 462.017 342.906 450.406 c 2,3,-1
 57.2188 29.0938 l 1,4,-1
 333.438 29.0938 l 2,5,6
 338.988 29.0938 338.988 29.0938 342.916 25.1787 c 128,-1,7
 346.844 21.2627 346.844 21.2627 346.844 15.7188 c 128,-1,8
 346.844 10.1719 346.844 10.1719 342.914 6.24219 c 128,-1,9
 338.984 2.3125 338.984 2.3125 333.438 2.3125 c 0,10,11
 26.9961 2.10156 26.9961 2.10156 21.6562 2.1875 c 1,12,13
 10.0488 8.88965 10.0488 8.88965 16.75 20.5 c 2,14,-1
 302.438 441.812 l 1,15,-1
 38.2188 441.812 l 2,16,17
 32.668 441.812 32.668 441.812 28.7402 445.729 c 128,-1,18
 24.8125 449.645 24.8125 449.645 24.8125 455.188 c 128,-1,19
 24.8125 460.734 24.8125 460.734 28.7422 464.664 c 128,-1,20
 32.6719 468.594 32.6719 468.594 38.2188 468.594 c 2,0,-1
EndSplineSet
KernsSLIFO: 75 -42 0 0 15 -98 0 0 14 -76 0 0 13 -400 0 0
EndChar
StartChar: braceleft
Encoding: 123 123 92
Width: 382
GlyphClass: 2
Flags: W
Fore
211.342 700.5 m 2,0,1
 259.324 700.622 259.324 700.622 287.654 699.719 c 0,2,3
 293.199 699.719 293.199 699.719 297.115 695.79 c 128,-1,4
 301.029 691.862 301.029 691.862 301.029 686.312 c 128,-1,5
 301.029 680.766 301.029 680.766 297.115 676.852 c 128,-1,6
 293.201 672.938 293.201 672.938 287.654 672.938 c 2,7,-1
 166.5 672.938 l 1,8,9
 166.5 636.05 166.5 636.05 167.111 590.029 c 2,10,-1
 168.088 518.109 l 2,11,12
 168.453 492.211 168.453 492.211 168.146 461.675 c 128,-1,13
 167.84 431.139 167.84 431.139 166.002 414.951 c 128,-1,14
 164.164 398.765 164.164 398.765 160.367 383.121 c 128,-1,15
 156.57 367.479 156.57 367.479 149.963 360.409 c 128,-1,16
 143.355 353.341 143.355 353.341 133.5 351.312 c 1,17,18
 143.295 346.224 143.295 346.224 149.557 339.427 c 128,-1,19
 155.816 332.631 155.816 332.631 159.756 318.268 c 128,-1,20
 163.697 303.905 163.697 303.905 165.453 290.826 c 128,-1,21
 167.209 277.747 167.209 277.747 167.701 248.312 c 128,-1,22
 168.195 218.874 168.195 218.874 167.869 194.497 c 128,-1,23
 167.545 170.12 167.545 170.12 167.021 120.595 c 128,-1,24
 166.5 71.0684 166.5 71.0684 166.5 29.5938 c 1,25,-1
 287.654 29.5938 l 2,26,27
 293.199 29.5938 293.199 29.5938 297.115 25.666 c 128,-1,28
 301.029 21.7373 301.029 21.7373 301.029 16.1875 c 128,-1,29
 301.029 10.6406 301.029 10.6406 297.115 6.72656 c 128,-1,30
 293.201 2.8125 293.201 2.8125 287.654 2.8125 c 2,31,-1
 166.25 2.46875 l 2,32,33
 139.717 2.46875 139.717 2.46875 139.717 30.2188 c 2,34,-1
 138.779 267.004 l 2,35,36
 138.779 296.863 138.779 296.863 130.025 316.479 c 128,-1,37
 121.273 336.094 121.273 336.094 105.75 336.094 c 2,38,-1
 50.7168 336.094 l 2,39,40
 45.166 336.094 45.166 336.094 41.2402 340.009 c 128,-1,41
 37.3125 343.924 37.3125 343.924 37.3105 349.469 c 128,-1,42
 37.3105 355.017 37.3105 355.017 41.2402 358.945 c 128,-1,43
 45.1699 362.875 45.1699 362.875 50.7168 362.875 c 2,44,-1
 105 362.875 l 2,45,46
 120.711 362.875 120.711 362.875 129.432 383.349 c 128,-1,47
 138.154 403.822 138.154 403.822 138.154 438.079 c 2,48,-1
 139.717 672.406 l 2,49,50
 139.717 684.364 139.717 684.364 147.838 692.274 c 128,-1,51
 155.961 700.188 155.961 700.188 168.623 700.188 c 2,52,-1
 211.342 700.5 l 2,0,1
EndSplineSet
EndChar
StartChar: bar
Encoding: 124 124 93
Width: 298
GlyphClass: 2
Flags: W
Fore
151.594 765.924 m 128,-1,1
 157.141 765.924 157.141 765.924 161.07 761.994 c 128,-1,2
 165 758.064 165 758.064 165 752.518 c 2,3,-1
 165 -145.724 l 2,4,5
 165 -151.268 165 -151.268 161.072 -155.184 c 128,-1,6
 157.145 -159.099 157.145 -159.099 151.594 -159.099 c 128,-1,7
 146.047 -159.099 146.047 -159.099 142.133 -155.185 c 128,-1,8
 138.219 -151.271 138.219 -151.271 138.219 -145.724 c 2,9,-1
 138.219 752.518 l 2,10,11
 138.219 758.067 138.219 758.067 142.135 761.996 c 128,-1,0
 146.049 765.924 146.049 765.924 151.594 765.924 c 128,-1,1
EndSplineSet
EndChar
StartChar: braceright
Encoding: 125 125 94
Width: 414
GlyphClass: 2
Flags: W
Fore
138.375 700.5 m 2,0,-1
 181.094 700.188 l 2,1,2
 193.756 700.188 193.756 700.188 204.815 689.233 c 0,3,4
 209.922 684.178 209.922 684.178 210 672.406 c 2,5,-1
 211.562 438.079 l 2,6,7
 211.562 403.822 211.562 403.822 220.285 383.349 c 128,-1,8
 229.006 362.875 229.006 362.875 244.717 362.875 c 2,9,-1
 299 362.875 l 2,10,11
 304.547 362.875 304.547 362.875 308.477 358.945 c 128,-1,12
 312.406 355.017 312.406 355.017 312.406 349.469 c 128,-1,13
 312.404 343.924 312.404 343.924 308.477 340.009 c 128,-1,14
 304.551 336.094 304.551 336.094 299 336.094 c 2,15,-1
 243.967 336.094 l 2,16,17
 228.443 336.094 228.443 336.094 219.691 316.479 c 128,-1,18
 210.938 296.863 210.938 296.863 210.938 267.004 c 2,19,-1
 210 30.2188 l 2,20,21
 210 2.46875 210 2.46875 183.467 2.46875 c 2,22,-1
 62.0625 2.8125 l 2,23,24
 56.5156 2.8125 56.5156 2.8125 52.6016 6.72656 c 128,-1,25
 48.6875 10.6406 48.6875 10.6406 48.6875 16.1875 c 128,-1,26
 48.6875 21.7373 48.6875 21.7373 52.6016 25.666 c 128,-1,27
 56.5176 29.5938 56.5176 29.5938 62.0625 29.5938 c 2,28,-1
 183.217 29.5938 l 1,29,30
 183.217 71.0684 183.217 71.0684 182.695 120.595 c 128,-1,31
 182.172 170.12 182.172 170.12 181.848 194.497 c 128,-1,32
 181.521 218.874 181.521 218.874 182.016 248.311 c 128,-1,33
 182.508 277.747 182.508 277.747 184.264 290.826 c 128,-1,34
 186.02 303.905 186.02 303.905 189.961 318.268 c 128,-1,35
 193.9 332.631 193.9 332.631 200.16 339.427 c 128,-1,36
 206.422 346.224 206.422 346.224 216.217 351.312 c 1,37,38
 206.361 353.341 206.361 353.341 199.754 360.409 c 128,-1,39
 193.146 367.478 193.146 367.478 189.35 383.121 c 128,-1,40
 185.553 398.765 185.553 398.765 183.715 414.951 c 2,41,-1
 181.57 461.675 l 1,42,-1
 181.629 518.109 l 1,43,-1
 182.605 590.029 l 2,44,45
 183.217 636.05 183.217 636.05 183.217 672.938 c 1,46,-1
 62.0625 672.938 l 2,47,48
 56.5156 672.938 56.5156 672.938 52.6016 676.852 c 128,-1,49
 48.6875 680.766 48.6875 680.766 48.6875 686.312 c 128,-1,50
 48.6875 691.862 48.6875 691.862 52.6016 695.79 c 128,-1,51
 56.5176 699.719 56.5176 699.719 62.0625 699.719 c 0,52,53
 90.3926 700.622 90.3926 700.622 138.375 700.5 c 2,0,-1
EndSplineSet
EndChar
StartChar: brokenbar
Encoding: 166 166 95
Width: 82
GlyphClass: 2
Flags: W
Fore
44.0938 653.74 m 128,-1,1
 49.6406 653.74 49.6406 653.74 53.5703 649.811 c 128,-1,2
 57.5 645.882 57.5 645.882 57.5 640.334 c 2,3,-1
 57.5 385.438 l 2,4,5
 57.5 379.893 57.5 379.893 53.5723 375.978 c 128,-1,6
 49.6445 372.062 49.6445 372.062 44.0938 372.062 c 128,-1,7
 38.5469 372.062 38.5469 372.062 34.6328 375.977 c 128,-1,8
 30.7188 379.89 30.7188 379.89 30.7188 385.438 c 2,9,-1
 30.7188 640.334 l 2,10,11
 30.7188 645.885 30.7188 645.885 34.6328 649.812 c 128,-1,0
 38.5488 653.74 38.5488 653.74 44.0938 653.74 c 128,-1,1
44.0938 283.732 m 128,-1,13
 49.6406 283.732 49.6406 283.732 53.5703 279.803 c 128,-1,14
 57.5 275.873 57.5 275.873 57.5 270.326 c 2,15,-1
 57.5 15.4287 l 2,16,17
 57.5 9.88477 57.5 9.88477 53.5723 5.96875 c 128,-1,18
 49.6445 2.05371 49.6445 2.05371 44.0938 2.05371 c 128,-1,19
 38.5469 2.05371 38.5469 2.05371 34.6328 5.96777 c 128,-1,20
 30.7188 9.88184 30.7188 9.88184 30.7188 15.4287 c 2,21,-1
 30.7188 270.326 l 2,22,23
 30.7188 275.876 30.7188 275.876 34.6328 279.805 c 128,-1,12
 38.5488 283.732 38.5488 283.732 44.0938 283.732 c 128,-1,13
EndSplineSet
EndChar
StartChar: questiondown
Encoding: 191 191 96
Width: 534
GlyphClass: 2
Flags: W
Fore
263.344 1.875 m 4,0,1
 158.792 1.875 158.792 1.875 114.817 42.8096 c 132,-1,2
 70.8438 83.7441 70.8438 83.7441 70.8438 177.875 c 4,3,4
 70.8438 249.084 70.8438 249.084 104.196 282.948 c 132,-1,5
 137.548 316.812 137.548 316.812 211.28 316.812 c 4,6,7
 263.879 316.812 263.879 316.812 289.954 347.36 c 132,-1,8
 316.03 377.908 316.03 377.908 316.03 456.188 c 6,9,-1
 316.594 490.812 l 6,10,11
 316.594 496.363 316.594 496.363 320.509 500.291 c 132,-1,12
 324.423 504.219 324.423 504.219 329.968 504.219 c 132,-1,13
 335.516 504.219 335.516 504.219 339.445 500.289 c 132,-1,14
 343.375 496.36 343.375 496.36 343.375 490.812 c 6,15,-1
 342.5 450 l 6,16,17
 342.5 289.938 342.5 289.938 209.625 289.938 c 4,18,19
 148.354 289.938 148.354 289.938 122.474 263.388 c 132,-1,20
 96.5938 236.838 96.5938 236.838 96.5938 177.875 c 4,21,22
 96.5938 101.186 96.5938 101.186 139.35 62.4834 c 132,-1,23
 182.105 23.7812 182.105 23.7812 263.344 23.7812 c 4,24,25
 330.512 23.7812 330.512 23.7812 368.333 47.9619 c 132,-1,26
 406.155 72.1436 406.155 72.1436 406.155 134 c 4,27,28
 406.155 139.544 406.155 139.544 410.099 143.476 c 132,-1,29
 414.043 147.406 414.043 147.406 419.594 147.406 c 132,-1,30
 425.137 147.406 425.137 147.406 429.052 143.479 c 132,-1,31
 432.968 139.55 432.968 139.55 432.968 134 c 4,32,33
 432.968 67.916 432.968 67.916 391.646 34.8955 c 132,-1,34
 350.324 1.875 350.324 1.875 263.344 1.875 c 4,0,1
326.542 697.943 m 132,-1,36
 326.542 703.521 326.542 703.521 330.468 707.447 c 132,-1,37
 334.394 711.373 334.394 711.373 339.941 711.373 c 132,-1,38
 345.489 711.373 345.489 711.373 349.415 707.447 c 132,-1,39
 353.341 703.521 353.341 703.521 353.341 697.973 c 4,40,-1
 353.341 697.902 l 6,41,42
 353.341 692.354 353.341 692.354 349.415 688.428 c 132,-1,43
 345.489 684.502 345.489 684.502 339.941 684.502 c 132,-1,44
 334.394 684.502 334.394 684.502 330.468 688.428 c 132,-1,35
 326.542 692.354 326.542 692.354 326.542 697.943 c 132,-1,36
EndSplineSet
EndChar
StartChar: acute
Encoding: 180 180 97
Width: 370
Flags: W
TeX: 0 0 0 0
HStem: 546.188 180.361<100.841 270.886>
VStem: 82 207.771<547.835 724.897>
Fore
289.771 724.897 m 132,-1,1
 281.085 735.255 281.085 735.255 270.886 726.549 c 6,2,-1
 83.625 566.704 l 6,3,4
 73.4502 558.019 73.4502 558.019 82 547.835 c 132,-1,5
 90.6689 537.505 90.6689 537.505 100.841 546.188 c 6,6,-1
 288.101 706.034 l 6,7,0
 298.299 714.739 298.299 714.739 289.771 724.897 c 132,-1,1
EndSplineSet
EndChar
StartChar: asciitilde
Encoding: 126 126 98
Width: 390
Flags: W
TeX: 0 0 0 0
HStem: 533.062 27.2812<231.827 310.612> 668.531 27.2812<111.232 168.248>
VStem: 73.4678 26.8125<560.628 630.47> 298.218 26.8125<531.525 667.247>
Fore
146.187 695.812 m 0,0,1
 186.791 695.812 186.791 695.812 202.415 673.115 c 128,-1,2
 218.039 650.419 218.039 650.419 217.5 607.5 c 1,3,4
 223.062 580.984 223.062 580.984 230.338 570.664 c 128,-1,5
 237.614 560.344 237.614 560.344 256.905 560.344 c 0,6,7
 298.218 560.344 298.218 560.344 298.218 656.406 c 0,8,9
 298.218 661.954 298.218 661.954 302.147 665.883 c 128,-1,10
 306.077 669.812 306.077 669.812 311.624 669.812 c 128,-1,11
 317.171 669.812 317.171 669.812 321.101 665.883 c 128,-1,12
 325.03 661.953 325.03 661.953 325.03 656.406 c 0,13,14
 325.03 533.062 325.03 533.062 257.655 533.062 c 0,15,16
 186.116 533.062 186.116 533.062 187.968 623.031 c 1,17,18
 186.091 632.309 186.091 632.309 184.593 639.648 c 128,-1,19
 183.095 646.987 183.095 646.987 180.715 652.418 c 128,-1,20
 178.335 657.848 178.335 657.848 174.273 661.429 c 128,-1,21
 170.212 665.01 170.212 665.01 163.211 666.771 c 128,-1,22
 156.21 668.531 156.21 668.531 145.468 668.531 c 0,23,24
 119.133 668.531 119.133 668.531 109.707 642.693 c 128,-1,25
 100.28 616.854 100.28 616.854 100.28 571.469 c 0,26,27
 100.279 565.921 100.279 565.921 96.3496 561.992 c 128,-1,28
 92.4209 558.062 92.4209 558.062 86.874 558.062 c 128,-1,29
 81.3262 558.062 81.3262 558.062 77.3975 561.992 c 128,-1,30
 73.4688 565.922 73.4688 565.922 73.4678 571.469 c 0,31,32
 73.4678 627.616 73.4678 627.616 91.3438 661.715 c 128,-1,33
 109.22 695.812 109.22 695.812 146.187 695.812 c 0,0,1
EndSplineSet
EndChar
StartChar: cedilla
Encoding: 184 184 99
Width: 1000
Flags: W
TeX: 0 0 0 0
HStem: 5.9043 26.8125<74.0902 136.698>
VStem: 163 27.2734<-104.376 -13.7769>
Fore
190.273 -60.0332 m 0,0,1
 190.273 -12.1797 190.273 -12.1797 164.186 10.2686 c 128,-1,2
 138.099 32.7168 138.099 32.7168 84.9326 32.7168 c 0,3,4
 79.3848 32.7168 79.3848 32.7168 75.4551 28.7881 c 128,-1,5
 71.5264 24.8584 71.5264 24.8584 71.5264 19.3105 c 128,-1,6
 71.5264 13.7627 71.5264 13.7627 75.4551 9.83398 c 128,-1,7
 79.3838 5.90527 79.3838 5.90527 84.9326 5.9043 c 0,8,9
 124.752 5.9043 124.752 5.9043 143.876 -9.18652 c 128,-1,10
 163 -24.2783 163 -24.2783 163 -59.2832 c 0,11,12
 163 -93.9697 163 -93.9697 144.481 -108.282 c 128,-1,13
 125.963 -122.596 125.963 -122.596 84.9326 -122.596 c 0,14,15
 79.3848 -122.596 79.3848 -122.596 75.4551 -126.524 c 128,-1,16
 71.5264 -130.454 71.5264 -130.454 71.5264 -136.002 c 128,-1,17
 71.5264 -141.55 71.5264 -141.55 75.4551 -145.479 c 128,-1,18
 79.3848 -149.408 79.3848 -149.408 84.9326 -149.408 c 0,19,20
 141.529 -149.408 141.529 -149.408 165.901 -128.171 c 128,-1,21
 190.273 -106.934 190.273 -106.934 190.273 -60.0332 c 0,0,1
EndSplineSet
EndChar
StartChar: dieresis
Encoding: 168 168 100
Width: 308
Flags: W
TeX: 0 0 0 0
HStem: 641.701 26.8711<55.6867 77.365 231.784 253.463>
VStem: 53.126 26.7998<644.262 663.51> 229.224 26.7998<644.262 663.51>
Fore
256.023 655.13 m 128,-1,1
 256.023 649.553 256.023 649.553 252.098 645.627 c 128,-1,2
 248.172 641.701 248.172 641.701 242.623 641.701 c 128,-1,3
 237.075 641.701 237.075 641.701 233.149 645.627 c 128,-1,4
 229.224 649.554 229.224 649.554 229.224 655.101 c 0,5,-1
 229.224 655.172 l 2,6,7
 229.224 660.72 229.224 660.72 233.149 664.646 c 128,-1,8
 237.075 668.572 237.075 668.572 242.623 668.572 c 128,-1,9
 248.171 668.572 248.171 668.572 252.098 664.646 c 128,-1,0
 256.023 660.72 256.023 660.72 256.023 655.13 c 128,-1,1
79.9258 655.13 m 132,-1,11
 79.9258 649.553 79.9258 649.553 76 645.627 c 132,-1,12
 72.0742 641.701 72.0742 641.701 66.5254 641.701 c 132,-1,13
 60.9775 641.701 60.9775 641.701 57.0518 645.627 c 132,-1,14
 53.126 649.554 53.126 649.554 53.126 655.101 c 4,15,-1
 53.126 655.172 l 6,16,17
 53.126 660.72 53.126 660.72 57.0518 664.646 c 132,-1,18
 60.9775 668.572 60.9775 668.572 66.5254 668.572 c 132,-1,19
 72.0732 668.572 72.0732 668.572 76 664.646 c 132,-1,10
 79.9258 660.72 79.9258 660.72 79.9258 655.13 c 132,-1,11
EndSplineSet
EndChar
StartChar: circumflex
Encoding: 710 710 101
Width: 388
Flags: W
TeX: 0 0 0 0
HStem: 517.281 171.156<83.9688 182.656>
VStem: 73.0938 218.812<538.906 538.906>
Fore
83.9688 517.281 m 0,0,1
 90.7988 517.465 90.7988 517.465 94.1885 522.406 c 2,2,-1
 182.5 651.156 l 1,3,-1
 270.812 522.406 l 2,4,5
 278.409 511.331 278.409 511.331 289.625 520.094 c 0,6,7
 299.513 527.817 299.513 527.817 291.906 538.906 c 2,8,-1
 195.125 680 l 1,9,10
 193.783 683.378 193.783 683.378 190.906 685.625 c 0,11,12
 187.306 688.438 187.306 688.438 182.656 688.438 c 2,13,-1
 182.344 688.438 l 2,14,15
 177.664 688.438 177.664 688.438 174.062 685.625 c 0,16,17
 171.188 683.38 171.188 683.38 169.844 679.969 c 1,18,-1
 73.0938 538.906 l 2,19,20
 65.4873 527.816 65.4873 527.816 75.375 520.094 c 0,21,22
 79.1416 517.15 79.1416 517.15 83.9688 517.281 c 0,0,1
EndSplineSet
EndChar
StartChar: caron
Encoding: 711 711 102
Width: 388
Flags: W
TeX: 0 0 0 0
HStem: 509.562 171.156<76.9688 175.656>
VStem: 66.0938 218.812<659.094 659.094>
Fore
76.9688 680.719 m 0,0,1
 83.7988 680.535 83.7988 680.535 87.1885 675.594 c 2,2,-1
 175.5 546.844 l 1,3,-1
 263.812 675.594 l 2,4,5
 271.409 686.669 271.409 686.669 282.625 677.906 c 0,6,7
 292.513 670.183 292.513 670.183 284.906 659.094 c 2,8,-1
 188.125 518 l 1,9,10
 186.783 514.622 186.783 514.622 183.906 512.375 c 0,11,12
 180.306 509.562 180.306 509.562 175.656 509.562 c 2,13,-1
 175.344 509.562 l 2,14,15
 170.664 509.562 170.664 509.562 167.062 512.375 c 0,16,17
 164.188 514.62 164.188 514.62 162.844 518.031 c 1,18,-1
 66.0938 659.094 l 2,19,20
 58.4873 670.184 58.4873 670.184 68.375 677.906 c 0,21,22
 72.1416 680.85 72.1416 680.85 76.9688 680.719 c 0,0,1
EndSplineSet
EndChar
StartChar: ring
Encoding: 730 730 103
Width: 329
Flags: W
TeX: 0 0 0 0
HStem: 552.086 27.2812<117.113 202.599> 717.461 27.25<117.116 202.594>
VStem: 68.1807 26.8428<633.893 662.935> 223.15 26.8428<634.448 662.38>
Fore
157.743 744.711 m 2,0,-1
 160.743 744.711 l 2,1,2
 202.65 744.711 202.65 744.711 223.889 725.478 c 0,3,4
 239.382 711.447 239.382 711.447 249.118 662.461 c 2,5,6
 250.152 659.879 250.152 659.879 250.118 657.43 c 2,7,-1
 249.993 648.398 l 1,8,-1
 250.118 639.367 l 2,9,10
 250.151 636.95 250.151 636.95 249.118 634.367 c 2,11,12
 239.302 585.285 239.302 585.285 223.894 571.326 c 0,13,14
 202.656 552.086 202.656 552.086 160.743 552.086 c 0,15,16
 78.3311 552.086 78.3311 552.086 69.2432 633.805 c 1,17,18
 67.9365 636.639 67.9365 636.639 67.9932 639.367 c 2,19,-1
 68.1807 648.398 l 1,20,-1
 67.9932 657.43 l 2,21,22
 67.9355 660.205 67.9355 660.205 69.2432 663.023 c 1,23,24
 78.3379 744.711 78.3379 744.711 157.743 744.711 c 2,0,-1
159.993 717.461 m 0,25,26
 127.011 717.461 127.011 717.461 111.788 700.487 c 0,27,28
 95.0234 681.793 95.0234 681.793 95.0234 648.398 c 128,-1,29
 95.0234 615.009 95.0234 615.009 111.788 596.329 c 0,30,31
 127.009 579.367 127.009 579.367 159.993 579.367 c 0,32,33
 192.767 579.367 192.767 579.367 207.267 595.838 c 0,34,35
 223.151 612.282 223.151 612.282 223.15 648.398 c 128,-1,36
 223.149 684.521 223.149 684.521 207.264 700.978 c 0,37,38
 192.763 717.461 192.763 717.461 159.993 717.461 c 0,25,26
EndSplineSet
EndChar
StartChar: breve
Encoding: 728 728 104
Width: 276
Flags: W
TeX: 0 0 0 0
HStem: 572.972 27.2734<91.606 182.205>
VStem: 200.425 26.8125<624.974 689.154>
Fore
137.862 572.972 m 0,0,1
 90.0088 572.972 90.0088 572.972 67.5605 599.059 c 128,-1,2
 45.1123 625.146 45.1123 625.146 45.1123 678.312 c 0,3,4
 45.1123 683.86 45.1123 683.86 49.042 687.789 c 128,-1,5
 52.9717 691.719 52.9717 691.719 58.5186 691.719 c 128,-1,6
 64.0654 691.719 64.0654 691.719 67.9941 687.79 c 128,-1,7
 71.9238 683.86 71.9238 683.86 71.9248 678.312 c 0,8,9
 71.9248 638.493 71.9248 638.493 87.0156 619.369 c 128,-1,10
 102.107 600.245 102.107 600.245 137.112 600.245 c 0,11,12
 171.799 600.245 171.799 600.245 186.111 618.765 c 128,-1,13
 200.425 637.283 200.425 637.283 200.425 678.312 c 0,14,15
 200.425 683.86 200.425 683.86 204.354 687.789 c 128,-1,16
 208.284 691.719 208.284 691.719 213.831 691.719 c 128,-1,17
 219.378 691.719 219.378 691.719 223.308 687.789 c 128,-1,18
 227.237 683.86 227.237 683.86 227.237 678.312 c 0,19,20
 227.237 621.716 227.237 621.716 206 597.344 c 128,-1,21
 184.764 572.972 184.764 572.972 137.862 572.972 c 0,0,1
EndSplineSet
EndChar
StartChar: tilde
Encoding: 732 732 105
Width: 390
Flags: W
TeX: 0 0 0 0
HStem: 533.062 27.2812<231.827 310.612> 668.531 27.2812<111.232 168.248>
VStem: 73.4678 26.8125<560.628 630.47> 298.218 26.8125<531.525 667.247>
Fore
146.187 695.812 m 0,0,1
 186.791 695.812 186.791 695.812 202.415 673.115 c 128,-1,2
 218.039 650.419 218.039 650.419 217.5 607.5 c 1,3,4
 223.062 580.984 223.062 580.984 230.338 570.664 c 128,-1,5
 237.614 560.344 237.614 560.344 256.905 560.344 c 0,6,7
 298.218 560.344 298.218 560.344 298.218 656.406 c 0,8,9
 298.218 661.954 298.218 661.954 302.147 665.883 c 128,-1,10
 306.077 669.812 306.077 669.812 311.624 669.812 c 128,-1,11
 317.171 669.812 317.171 669.812 321.101 665.883 c 128,-1,12
 325.03 661.953 325.03 661.953 325.03 656.406 c 0,13,14
 325.03 533.062 325.03 533.062 257.655 533.062 c 0,15,16
 186.116 533.062 186.116 533.062 187.968 623.031 c 1,17,18
 186.091 632.309 186.091 632.309 184.593 639.648 c 128,-1,19
 183.095 646.987 183.095 646.987 180.715 652.418 c 128,-1,20
 178.335 657.848 178.335 657.848 174.273 661.429 c 128,-1,21
 170.212 665.01 170.212 665.01 163.211 666.771 c 128,-1,22
 156.21 668.531 156.21 668.531 145.468 668.531 c 0,23,24
 119.133 668.531 119.133 668.531 109.707 642.693 c 128,-1,25
 100.28 616.854 100.28 616.854 100.28 571.469 c 0,26,27
 100.279 565.921 100.279 565.921 96.3496 561.992 c 128,-1,28
 92.4209 558.062 92.4209 558.062 86.874 558.062 c 128,-1,29
 81.3262 558.062 81.3262 558.062 77.3975 561.992 c 128,-1,30
 73.4688 565.922 73.4688 565.922 73.4678 571.469 c 0,31,32
 73.4678 627.616 73.4678 627.616 91.3438 661.715 c 128,-1,33
 109.22 695.812 109.22 695.812 146.187 695.812 c 0,0,1
EndSplineSet
EndChar
StartChar: ogonek
Encoding: 731 731 106
Width: 217
Flags: W
TeX: 0 0 0 0
HStem: -149.408 26.8125<117.728 181.91>
VStem: 65.7266 27.2734<-104.376 -13.7769>
Fore
65.7266 -60.0332 m 4,0,1
 65.7266 -12.1797 65.7266 -12.1797 91.8145 10.2686 c 132,-1,2
 117.901 32.7168 117.901 32.7168 171.067 32.7168 c 4,3,4
 176.615 32.7168 176.615 32.7168 180.545 28.7881 c 132,-1,5
 184.474 24.8584 184.474 24.8584 184.474 19.3105 c 132,-1,6
 184.474 13.7627 184.474 13.7627 180.545 9.83398 c 132,-1,7
 176.616 5.90527 176.616 5.90527 171.067 5.9043 c 4,8,9
 131.248 5.9043 131.248 5.9043 112.124 -9.18652 c 132,-1,10
 93 -24.2783 93 -24.2783 93 -59.2832 c 4,11,12
 93 -93.9697 93 -93.9697 111.519 -108.282 c 132,-1,13
 130.037 -122.596 130.037 -122.596 171.067 -122.596 c 4,14,15
 176.615 -122.596 176.615 -122.596 180.545 -126.524 c 132,-1,16
 184.474 -130.454 184.474 -130.454 184.474 -136.002 c 132,-1,17
 184.474 -141.55 184.474 -141.55 180.545 -145.479 c 132,-1,18
 176.615 -149.408 176.615 -149.408 171.067 -149.408 c 4,19,20
 114.471 -149.408 114.471 -149.408 90.0986 -128.171 c 132,-1,21
 65.7266 -106.934 65.7266 -106.934 65.7266 -60.0332 c 4,0,1
EndSplineSet
EndChar
StartChar: hungarumlaut
Encoding: 733 733 107
Width: 561
Flags: W
TeX: 0 0 0 0
HStem: 546.188 180.361<100.841 270.886>
VStem: 82 455.771<547.835 724.897>
Fore
289.771 724.897 m 128,-1,1
 281.085 735.255 281.085 735.255 270.886 726.549 c 2,2,-1
 83.625 566.704 l 2,3,4
 73.4502 558.019 73.4502 558.019 82 547.835 c 128,-1,5
 90.6689 537.505 90.6689 537.505 100.841 546.188 c 2,6,-1
 288.101 706.034 l 2,7,0
 298.299 714.739 298.299 714.739 289.771 724.897 c 128,-1,1
537.771 724.897 m 128,-1,9
 529.085 735.255 529.085 735.255 518.886 726.549 c 2,10,-1
 331.625 566.704 l 2,11,12
 321.45 558.019 321.45 558.019 330 547.835 c 128,-1,13
 338.669 537.505 338.669 537.505 348.841 546.188 c 2,14,-1
 536.101 706.034 l 2,15,8
 546.299 714.739 546.299 714.739 537.771 724.897 c 128,-1,9
EndSplineSet
EndChar
StartChar: dotaccent
Encoding: 729 729 108
Width: 133
Flags: W
TeX: 0 0 0 0
HStem: 641.701 26.8711<55.6867 77.365>
VStem: 53.126 26.7998<644.262 663.51>
Fore
79.9258 655.13 m 128,-1,1
 79.9258 649.553 79.9258 649.553 76 645.627 c 128,-1,2
 72.0742 641.701 72.0742 641.701 66.5254 641.701 c 128,-1,3
 60.9775 641.701 60.9775 641.701 57.0518 645.627 c 128,-1,4
 53.126 649.554 53.126 649.554 53.126 655.101 c 0,5,-1
 53.126 655.172 l 2,6,7
 53.126 660.72 53.126 660.72 57.0518 664.646 c 128,-1,8
 60.9775 668.572 60.9775 668.572 66.5254 668.572 c 128,-1,9
 72.0732 668.572 72.0732 668.572 76 664.646 c 128,-1,0
 79.9258 660.72 79.9258 660.72 79.9258 655.13 c 128,-1,1
EndSplineSet
EndChar
StartChar: dotlessi
Encoding: 305 305 136
Width: 124
Flags: W
TeX: 0 0 0 0
Fore
66.9785 475.612 m 128,-1,1
 72.5273 475.612 72.5273 475.612 76.457 471.683 c 128,-1,2
 80.3867 467.753 80.3867 467.753 80.3867 462.206 c 2,3,-1
 80.3867 12.9561 l 2,4,5
 80.3867 7.41211 80.3867 7.41211 76.458 3.49609 c 128,-1,6
 72.5303 -0.418945 72.5303 -0.418945 66.9785 -0.418945 c 128,-1,7
 61.4326 -0.418945 61.4326 -0.418945 57.5186 3.49512 c 128,-1,8
 53.6035 7.40918 53.6035 7.40918 53.6035 12.9561 c 2,9,-1
 53.6035 462.206 l 2,10,11
 53.6035 467.756 53.6035 467.756 57.5215 471.685 c 128,-1,0
 61.4355 475.612 61.4355 475.612 66.9785 475.612 c 128,-1,1
EndSplineSet
EndChar
